solid OpenSCAD_Model
  facet normal -0.944809 0.327621 0
    outer loop
      vertex -13.5977 7.9872 -3
      vertex -13.3408 8.72806 0
      vertex -13.3408 8.72806 -3
    endloop
  endfacet
  facet normal -0.944809 0.327621 0
    outer loop
      vertex -13.3408 8.72806 0
      vertex -13.5977 7.9872 -3
      vertex -13.5977 7.9872 0
    endloop
  endfacet
  facet normal -0.862736 0.505654 0
    outer loop
      vertex -13.3408 8.72806 -3
      vertex -12.9443 9.40456 0
      vertex -12.9443 9.40456 -3
    endloop
  endfacet
  facet normal -0.862736 0.505654 0
    outer loop
      vertex -12.9443 9.40456 0
      vertex -13.3408 8.72806 -3
      vertex -13.3408 8.72806 0
    endloop
  endfacet
  facet normal -0.990576 0.136967 0
    outer loop
      vertex -13.7051 7.21046 -3
      vertex -13.5977 7.9872 0
      vertex -13.5977 7.9872 -3
    endloop
  endfacet
  facet normal -0.990576 0.136967 0
    outer loop
      vertex -13.5977 7.9872 0
      vertex -13.7051 7.21046 -3
      vertex -13.7051 7.21046 0
    endloop
  endfacet
  facet normal -0.99827 -0.0587908 0
    outer loop
      vertex -13.659 6.42768 -3
      vertex -13.7051 7.21046 0
      vertex -13.7051 7.21046 -3
    endloop
  endfacet
  facet normal -0.99827 -0.0587908 0
    outer loop
      vertex -13.7051 7.21046 0
      vertex -13.659 6.42768 -3
      vertex -13.659 6.42768 0
    endloop
  endfacet
  facet normal -0.967548 -0.252688 0
    outer loop
      vertex -13.6142 6.25614 -3
      vertex -13.659 6.42768 0
      vertex -13.659 6.42768 -3
    endloop
  endfacet
  facet normal -0.967548 -0.252688 0
    outer loop
      vertex -13.659 6.42768 0
      vertex -13.6142 6.25614 -3
      vertex -13.6142 6.25614 0
    endloop
  endfacet
  facet normal -0.436417 0.899744 0
    outer loop
      vertex -11.0927 10.8062 -3
      vertex -11.7982 10.464 0
      vertex -11.0927 10.8062 0
    endloop
  endfacet
  facet normal -0.436417 0.899744 0
    outer loop
      vertex -11.7982 10.464 0
      vertex -11.0927 10.8062 -3
      vertex -11.7982 10.464 -3
    endloop
  endfacet
  facet normal -0.252484 0.967601 0
    outer loop
      vertex -10.3339 11.0042 -3
      vertex -11.0927 10.8062 0
      vertex -10.3339 11.0042 0
    endloop
  endfacet
  facet normal -0.252484 0.967601 0
    outer loop
      vertex -11.0927 10.8062 0
      vertex -10.3339 11.0042 -3
      vertex -11.0927 10.8062 -3
    endloop
  endfacet
  facet normal -0.0584912 0.998288 0
    outer loop
      vertex -10.1564 11.0146 -3
      vertex -10.3339 11.0042 0
      vertex -10.1564 11.0146 0
    endloop
  endfacet
  facet normal -0.0584912 0.998288 0
    outer loop
      vertex -10.3339 11.0042 0
      vertex -10.1564 11.0146 -3
      vertex -10.3339 11.0042 -3
    endloop
  endfacet
  facet normal -0.603577 0.797305 0
    outer loop
      vertex -11.7982 10.464 -3
      vertex -12.4234 9.99071 0
      vertex -11.7982 10.464 0
    endloop
  endfacet
  facet normal -0.603577 0.797305 0
    outer loop
      vertex -12.4234 9.99071 0
      vertex -11.7982 10.464 -3
      vertex -12.4234 9.99071 -3
    endloop
  endfacet
  facet normal -0.747487 0.664277 0
    outer loop
      vertex -12.9443 9.40456 -3
      vertex -12.4234 9.99071 0
      vertex -12.4234 9.99071 -3
    endloop
  endfacet
  facet normal -0.747487 0.664277 0
    outer loop
      vertex -12.4234 9.99071 0
      vertex -12.9443 9.40456 -3
      vertex -12.9443 9.40456 0
    endloop
  endfacet
  facet normal 0 0 -1
    outer loop
      vertex -10.6066 10.6066 -3
      vertex -10.3339 11.0042 -3
      vertex -10.1564 11.0146 -3
    endloop
  endfacet
  facet normal 0 0 -1
    outer loop
      vertex -10.6066 10.6066 -3
      vertex -11.0927 10.8062 -3
      vertex -10.3339 11.0042 -3
    endloop
  endfacet
  facet normal 0 0 -1
    outer loop
      vertex -11.5952 9.5159 -3
      vertex -11.0927 10.8062 -3
      vertex -10.6066 10.6066 -3
    endloop
  endfacet
  facet normal 0 0 -1
    outer loop
      vertex -11.5952 9.5159 -3
      vertex -11.7982 10.464 -3
      vertex -11.0927 10.8062 -3
    endloop
  endfacet
  facet normal 0 0 -1
    outer loop
      vertex -11.5952 9.5159 -3
      vertex -12.4234 9.99071 -3
      vertex -11.7982 10.464 -3
    endloop
  endfacet
  facet normal 0 0 -1
    outer loop
      vertex -12.9443 9.40456 -3
      vertex -11.5952 9.5159 -3
      vertex -12.472 8.33355 -3
    endloop
  endfacet
  facet normal -0 0 -1
    outer loop
      vertex -11.5952 9.5159 -3
      vertex -12.9443 9.40456 -3
      vertex -12.4234 9.99071 -3
    endloop
  endfacet
  facet normal 0 0 -1
    outer loop
      vertex -13.5977 7.9872 -3
      vertex -12.472 8.33355 -3
      vertex -13.2288 7.07095 -3
    endloop
  endfacet
  facet normal 0 0 -1
    outer loop
      vertex -12.472 8.33355 -3
      vertex -13.3408 8.72806 -3
      vertex -12.9443 9.40456 -3
    endloop
  endfacet
  facet normal -0 0 -1
    outer loop
      vertex -12.472 8.33355 -3
      vertex -13.5977 7.9872 -3
      vertex -13.3408 8.72806 -3
    endloop
  endfacet
  facet normal 0 0 -1
    outer loop
      vertex -13.659 6.42768 -3
      vertex -13.2288 7.07095 -3
      vertex -13.6142 6.25614 -3
    endloop
  endfacet
  facet normal -0 0 -1
    outer loop
      vertex -13.2288 7.07095 -3
      vertex -13.659 6.42768 -3
      vertex -13.7051 7.21046 -3
    endloop
  endfacet
  facet normal 0 0 -1
    outer loop
      vertex -13.2288 7.07095 -3
      vertex -13.7051 7.21046 -3
      vertex -13.5977 7.9872 -3
    endloop
  endfacet
  facet normal -0.436417 -0.899744 0
    outer loop
      vertex -11.7982 -10.464 -3
      vertex -11.0927 -10.8062 0
      vertex -11.7982 -10.464 0
    endloop
  endfacet
  facet normal -0.436417 -0.899744 -0
    outer loop
      vertex -11.0927 -10.8062 0
      vertex -11.7982 -10.464 -3
      vertex -11.0927 -10.8062 -3
    endloop
  endfacet
  facet normal -0.862736 -0.505654 0
    outer loop
      vertex -12.9443 -9.40456 -3
      vertex -13.3408 -8.72806 0
      vertex -13.3408 -8.72806 -3
    endloop
  endfacet
  facet normal -0.862736 -0.505654 0
    outer loop
      vertex -13.3408 -8.72806 0
      vertex -12.9443 -9.40456 -3
      vertex -12.9443 -9.40456 0
    endloop
  endfacet
  facet normal -0.747487 -0.664277 0
    outer loop
      vertex -12.4234 -9.99071 -3
      vertex -12.9443 -9.40456 0
      vertex -12.9443 -9.40456 -3
    endloop
  endfacet
  facet normal -0.747487 -0.664277 0
    outer loop
      vertex -12.9443 -9.40456 0
      vertex -12.4234 -9.99071 -3
      vertex -12.4234 -9.99071 0
    endloop
  endfacet
  facet normal -0.944809 -0.327621 0
    outer loop
      vertex -13.3408 -8.72806 -3
      vertex -13.5977 -7.9872 0
      vertex -13.5977 -7.9872 -3
    endloop
  endfacet
  facet normal -0.944809 -0.327621 0
    outer loop
      vertex -13.5977 -7.9872 0
      vertex -13.3408 -8.72806 -3
      vertex -13.3408 -8.72806 0
    endloop
  endfacet
  facet normal -0.990576 -0.136967 0
    outer loop
      vertex -13.5977 -7.9872 -3
      vertex -13.7051 -7.21046 0
      vertex -13.7051 -7.21046 -3
    endloop
  endfacet
  facet normal -0.990576 -0.136967 0
    outer loop
      vertex -13.7051 -7.21046 0
      vertex -13.5977 -7.9872 -3
      vertex -13.5977 -7.9872 0
    endloop
  endfacet
  facet normal -0.967548 0.252688 0
    outer loop
      vertex -13.659 -6.42768 -3
      vertex -13.6142 -6.25614 0
      vertex -13.6142 -6.25614 -3
    endloop
  endfacet
  facet normal -0.967548 0.252688 0
    outer loop
      vertex -13.6142 -6.25614 0
      vertex -13.659 -6.42768 -3
      vertex -13.659 -6.42768 0
    endloop
  endfacet
  facet normal -0.603577 -0.797305 0
    outer loop
      vertex -12.4234 -9.99071 -3
      vertex -11.7982 -10.464 0
      vertex -12.4234 -9.99071 0
    endloop
  endfacet
  facet normal -0.603577 -0.797305 -0
    outer loop
      vertex -11.7982 -10.464 0
      vertex -12.4234 -9.99071 -3
      vertex -11.7982 -10.464 -3
    endloop
  endfacet
  facet normal -0.99827 0.0587908 0
    outer loop
      vertex -13.7051 -7.21046 -3
      vertex -13.659 -6.42768 0
      vertex -13.659 -6.42768 -3
    endloop
  endfacet
  facet normal -0.99827 0.0587908 0
    outer loop
      vertex -13.659 -6.42768 0
      vertex -13.7051 -7.21046 -3
      vertex -13.7051 -7.21046 0
    endloop
  endfacet
  facet normal -0.0584912 -0.998288 0
    outer loop
      vertex -10.3339 -11.0042 -3
      vertex -10.1564 -11.0146 0
      vertex -10.3339 -11.0042 0
    endloop
  endfacet
  facet normal -0.0584912 -0.998288 -0
    outer loop
      vertex -10.1564 -11.0146 0
      vertex -10.3339 -11.0042 -3
      vertex -10.1564 -11.0146 -3
    endloop
  endfacet
  facet normal -0.252484 -0.967601 0
    outer loop
      vertex -11.0927 -10.8062 -3
      vertex -10.3339 -11.0042 0
      vertex -11.0927 -10.8062 0
    endloop
  endfacet
  facet normal -0.252484 -0.967601 -0
    outer loop
      vertex -10.3339 -11.0042 0
      vertex -11.0927 -10.8062 -3
      vertex -10.3339 -11.0042 -3
    endloop
  endfacet
  facet normal 0 0 -1
    outer loop
      vertex -10.3339 -11.0042 -3
      vertex -10.6066 -10.6066 -3
      vertex -10.1564 -11.0146 -3
    endloop
  endfacet
  facet normal 0 0 -1
    outer loop
      vertex -11.0927 -10.8062 -3
      vertex -10.6066 -10.6066 -3
      vertex -10.3339 -11.0042 -3
    endloop
  endfacet
  facet normal 0 0 -1
    outer loop
      vertex -11.0927 -10.8062 -3
      vertex -11.5952 -9.5159 -3
      vertex -10.6066 -10.6066 -3
    endloop
  endfacet
  facet normal 0 0 -1
    outer loop
      vertex -11.7982 -10.464 -3
      vertex -11.5952 -9.5159 -3
      vertex -11.0927 -10.8062 -3
    endloop
  endfacet
  facet normal 0 0 -1
    outer loop
      vertex -12.4234 -9.99071 -3
      vertex -11.5952 -9.5159 -3
      vertex -11.7982 -10.464 -3
    endloop
  endfacet
  facet normal 0 0 -1
    outer loop
      vertex -12.9443 -9.40456 -3
      vertex -11.5952 -9.5159 -3
      vertex -12.4234 -9.99071 -3
    endloop
  endfacet
  facet normal 0 0 -1
    outer loop
      vertex -11.5952 -9.5159 -3
      vertex -12.9443 -9.40456 -3
      vertex -12.472 -8.33355 -3
    endloop
  endfacet
  facet normal 0 0 -1
    outer loop
      vertex -13.3408 -8.72806 -3
      vertex -12.472 -8.33355 -3
      vertex -12.9443 -9.40456 -3
    endloop
  endfacet
  facet normal 0 0 -1
    outer loop
      vertex -13.5977 -7.9872 -3
      vertex -12.472 -8.33355 -3
      vertex -13.3408 -8.72806 -3
    endloop
  endfacet
  facet normal 0 0 -1
    outer loop
      vertex -12.472 -8.33355 -3
      vertex -13.5977 -7.9872 -3
      vertex -13.2288 -7.07095 -3
    endloop
  endfacet
  facet normal 0 0 -1
    outer loop
      vertex -13.7051 -7.21046 -3
      vertex -13.2288 -7.07095 -3
      vertex -13.5977 -7.9872 -3
    endloop
  endfacet
  facet normal 0 -0 -1
    outer loop
      vertex -13.659 -6.42768 -3
      vertex -13.2288 -7.07095 -3
      vertex -13.7051 -7.21046 -3
    endloop
  endfacet
  facet normal 0 0 -1
    outer loop
      vertex -13.2288 -7.07095 -3
      vertex -13.659 -6.42768 -3
      vertex -13.6142 -6.25614 -3
    endloop
  endfacet
  facet normal 0 0 1
    outer loop
      vertex -89.7185 130.292 5.5
      vertex -87.3738 113.455 5.5
      vertex -80.9017 118.157 5.5
    endloop
  endfacet
  facet normal 0 0 1
    outer loop
      vertex -87.3738 113.455 5.5
      vertex -89.7185 130.292 5.5
      vertex -96.1906 125.59 5.5
    endloop
  endfacet
  facet normal -0.587764 0.809032 0
    outer loop
      vertex -89.7185 130.292 2.5
      vertex -96.1906 125.59 5.5
      vertex -89.7185 130.292 5.5
    endloop
  endfacet
  facet normal -0.587764 0.809032 0
    outer loop
      vertex -96.1906 125.59 5.5
      vertex -89.7185 130.292 2.5
      vertex -96.1906 125.59 2.5
    endloop
  endfacet
  facet normal 0.587764 -0.809032 0
    outer loop
      vertex -87.3738 113.455 2.5
      vertex -80.9017 118.157 5.5
      vertex -87.3738 113.455 5.5
    endloop
  endfacet
  facet normal 0.587764 -0.809032 0
    outer loop
      vertex -80.9017 118.157 5.5
      vertex -87.3738 113.455 2.5
      vertex -80.9017 118.157 2.5
    endloop
  endfacet
  facet normal -0.80901 -0.587794 0
    outer loop
      vertex -87.3738 113.455 2.5
      vertex -96.1906 125.59 5.5
      vertex -96.1906 125.59 2.5
    endloop
  endfacet
  facet normal -0.80901 -0.587794 0
    outer loop
      vertex -96.1906 125.59 5.5
      vertex -87.3738 113.455 2.5
      vertex -87.3738 113.455 5.5
    endloop
  endfacet
  facet normal 0 0 -1
    outer loop
      vertex -87.3738 113.455 2.5
      vertex -89.7185 130.292 2.5
      vertex -80.9017 118.157 2.5
    endloop
  endfacet
  facet normal 0 -0 -1
    outer loop
      vertex -89.7185 130.292 2.5
      vertex -87.3738 113.455 2.5
      vertex -96.1906 125.59 2.5
    endloop
  endfacet
  facet normal 0.80901 0.587794 0
    outer loop
      vertex -80.9017 118.157 5.5
      vertex -89.7185 130.292 2.5
      vertex -89.7185 130.292 5.5
    endloop
  endfacet
  facet normal 0.80901 0.587794 0
    outer loop
      vertex -89.7185 130.292 2.5
      vertex -80.9017 118.157 5.5
      vertex -80.9017 118.157 2.5
    endloop
  endfacet
  facet normal -0.951061 -0.309004 0
    outer loop
      vertex -149.168 -52.6733 2.5
      vertex -151.64 -45.0649 5.5
      vertex -151.64 -45.0649 2.5
    endloop
  endfacet
  facet normal -0.951061 -0.309004 0
    outer loop
      vertex -151.64 -45.0649 5.5
      vertex -149.168 -52.6733 2.5
      vertex -149.168 -52.6733 5.5
    endloop
  endfacet
  facet normal 0 0 1
    outer loop
      vertex -137.374 -40.4296 5.5
      vertex -149.168 -52.6733 5.5
      vertex -134.902 -48.0381 5.5
    endloop
  endfacet
  facet normal 0 -0 1
    outer loop
      vertex -149.168 -52.6733 5.5
      vertex -137.374 -40.4296 5.5
      vertex -151.64 -45.0649 5.5
    endloop
  endfacet
  facet normal 0 0 -1
    outer loop
      vertex -149.168 -52.6733 2.5
      vertex -137.374 -40.4296 2.5
      vertex -134.902 -48.0381 2.5
    endloop
  endfacet
  facet normal 0 0 -1
    outer loop
      vertex -137.374 -40.4296 2.5
      vertex -149.168 -52.6733 2.5
      vertex -151.64 -45.0649 2.5
    endloop
  endfacet
  facet normal 0.951062 0.309 0
    outer loop
      vertex -134.902 -48.0381 5.5
      vertex -137.374 -40.4296 2.5
      vertex -137.374 -40.4296 5.5
    endloop
  endfacet
  facet normal 0.951062 0.309 0
    outer loop
      vertex -137.374 -40.4296 2.5
      vertex -134.902 -48.0381 5.5
      vertex -134.902 -48.0381 2.5
    endloop
  endfacet
  facet normal 0.309011 -0.951059 0
    outer loop
      vertex -149.168 -52.6733 2.5
      vertex -134.902 -48.0381 5.5
      vertex -149.168 -52.6733 5.5
    endloop
  endfacet
  facet normal 0.309011 -0.951059 0
    outer loop
      vertex -134.902 -48.0381 5.5
      vertex -149.168 -52.6733 2.5
      vertex -134.902 -48.0381 2.5
    endloop
  endfacet
  facet normal -0.309017 0.951057 0
    outer loop
      vertex -137.374 -40.4296 2.5
      vertex -151.64 -45.0649 5.5
      vertex -137.374 -40.4296 5.5
    endloop
  endfacet
  facet normal -0.309017 0.951057 0
    outer loop
      vertex -151.64 -45.0649 5.5
      vertex -137.374 -40.4296 2.5
      vertex -151.64 -45.0649 2.5
    endloop
  endfacet
  facet normal 0 -1 0
    outer loop
      vertex -4 -158.144 2.5
      vertex 0.0499992 -158.144 5.5
      vertex -4 -158.144 5.5
    endloop
  endfacet
  facet normal 0 -1 -0
    outer loop
      vertex 0.0499992 -158.144 5.5
      vertex -4 -158.144 2.5
      vertex 0.0499992 -158.144 2.5
    endloop
  endfacet
  facet normal -0 0 1
    outer loop
      vertex -4 -143.144 5.5
      vertex 0.0499992 -158.144 5.5
      vertex 0.0499992 -143.144 5.5
    endloop
  endfacet
  facet normal 0 0 1
    outer loop
      vertex 0.0499992 -158.144 5.5
      vertex -4 -143.144 5.5
      vertex -4 -158.144 5.5
    endloop
  endfacet
  facet normal 0 0 -1
    outer loop
      vertex -4 -158.144 2.5
      vertex 0.0499992 -143.144 2.5
      vertex 0.0499992 -158.144 2.5
    endloop
  endfacet
  facet normal -0 0 -1
    outer loop
      vertex 0.0499992 -143.144 2.5
      vertex -4 -158.144 2.5
      vertex -4 -143.144 2.5
    endloop
  endfacet
  facet normal 0 1 -0
    outer loop
      vertex 0.0499992 -143.144 2.5
      vertex -4 -143.144 5.5
      vertex 0.0499992 -143.144 5.5
    endloop
  endfacet
  facet normal 0 1 0
    outer loop
      vertex -4 -143.144 5.5
      vertex 0.0499992 -143.144 2.5
      vertex -4 -143.144 2.5
    endloop
  endfacet
  facet normal -1 0 0
    outer loop
      vertex -4 -158.144 2.5
      vertex -4 -143.144 5.5
      vertex -4 -143.144 2.5
    endloop
  endfacet
  facet normal -1 -0 0
    outer loop
      vertex -4 -143.144 5.5
      vertex -4 -158.144 2.5
      vertex -4 -158.144 5.5
    endloop
  endfacet
  facet normal -0.587783 0.809019 0
    outer loop
      vertex 0 176.935 0
      vertex -168.276 54.676 8
      vertex 0 176.935 8
    endloop
  endfacet
  facet normal -0.587783 0.809019 0
    outer loop
      vertex -168.276 54.676 8
      vertex 0 176.935 0
      vertex -168.276 54.676 0
    endloop
  endfacet
  facet normal 0.584311 0.81153 -0
    outer loop
      vertex 0.0499992 176.899 0
      vertex 0 176.935 8
      vertex 0.0499992 176.899 8
    endloop
  endfacet
  facet normal 0.584311 0.81153 0
    outer loop
      vertex 0 176.935 8
      vertex 0.0499992 176.899 0
      vertex 0 176.935 0
    endloop
  endfacet
  facet normal 0 -1 0
    outer loop
      vertex -104 -143.144 0
      vertex 0.0499992 -143.144 8
      vertex -104 -143.144 8
    endloop
  endfacet
  facet normal 0 -1 -0
    outer loop
      vertex 0.0499992 -143.144 8
      vertex -104 -143.144 0
      vertex 0.0499992 -143.144 0
    endloop
  endfacet
  facet normal 0 0 -1
    outer loop
      vertex 0.0499992 -143.144 0
      vertex 0 -15 0
      vertex 0.0499992 -14.9975 0
    endloop
  endfacet
  facet normal 0 0 -1
    outer loop
      vertex 0.0499992 -143.144 0
      vertex -1.47026 -14.9278 0
      vertex 0 -15 0
    endloop
  endfacet
  facet normal 0 0 -1
    outer loop
      vertex 0.0499992 -143.144 0
      vertex -2.92635 -14.7118 0
      vertex -1.47026 -14.9278 0
    endloop
  endfacet
  facet normal 0 0 -1
    outer loop
      vertex 0.0499992 -143.144 0
      vertex -4.35427 -14.3541 0
      vertex -2.92635 -14.7118 0
    endloop
  endfacet
  facet normal 0 0 -1
    outer loop
      vertex 0.0499992 -143.144 0
      vertex -5.74025 -13.8582 0
      vertex -4.35427 -14.3541 0
    endloop
  endfacet
  facet normal 0 0 -1
    outer loop
      vertex 0.0499992 -143.144 0
      vertex -7.07095 -13.2288 0
      vertex -5.74025 -13.8582 0
    endloop
  endfacet
  facet normal 0 0 -1
    outer loop
      vertex 0.0499992 -143.144 0
      vertex -8.33355 -12.472 0
      vertex -7.07095 -13.2288 0
    endloop
  endfacet
  facet normal 0 0 -1
    outer loop
      vertex -11.7982 -10.464 0
      vertex -8.33355 -12.472 0
      vertex 0.0499992 -143.144 0
    endloop
  endfacet
  facet normal 0 0 -1
    outer loop
      vertex -8.33355 -12.472 0
      vertex -11.0927 -10.8062 0
      vertex -9.5159 -11.5952 0
    endloop
  endfacet
  facet normal 0 0 -1
    outer loop
      vertex -9.5159 -11.5952 0
      vertex -10.3339 -11.0042 0
      vertex -10.1564 -11.0146 0
    endloop
  endfacet
  facet normal 0 0 -1
    outer loop
      vertex -9.5159 -11.5952 0
      vertex -11.0927 -10.8062 0
      vertex -10.3339 -11.0042 0
    endloop
  endfacet
  facet normal 0 0 -1
    outer loop
      vertex -8.33355 -12.472 0
      vertex -11.7982 -10.464 0
      vertex -11.0927 -10.8062 0
    endloop
  endfacet
  facet normal 0 0 -1
    outer loop
      vertex -104 -143.144 0
      vertex -11.7982 -10.464 0
      vertex 0.0499992 -143.144 0
    endloop
  endfacet
  facet normal -0 0 -1
    outer loop
      vertex -11.7982 -10.464 0
      vertex -104 -143.144 0
      vertex -12.4234 -9.99071 0
    endloop
  endfacet
  facet normal -0 0 -1
    outer loop
      vertex -12.4234 -9.99071 0
      vertex -104 -143.144 0
      vertex -12.9443 -9.40456 0
    endloop
  endfacet
  facet normal -0 0 -1
    outer loop
      vertex -12.9443 -9.40456 0
      vertex -104 -143.144 0
      vertex -13.3408 -8.72806 0
    endloop
  endfacet
  facet normal -0 0 -1
    outer loop
      vertex -13.3408 -8.72806 0
      vertex -104 -143.144 0
      vertex -13.5977 -7.9872 0
    endloop
  endfacet
  facet normal 0 0 -1
    outer loop
      vertex -168.276 54.676 0
      vertex -13.5977 -7.9872 0
      vertex -104 -143.144 0
    endloop
  endfacet
  facet normal -0 -0 -1
    outer loop
      vertex -14.7118 -2.92635 0
      vertex -13.5977 -7.9872 0
      vertex -168.276 54.676 0
    endloop
  endfacet
  facet normal 0 0 -1
    outer loop
      vertex -13.7051 -7.21046 0
      vertex -14.3541 -4.35427 0
      vertex -13.8582 -5.74025 0
    endloop
  endfacet
  facet normal 0 0 -1
    outer loop
      vertex -13.5977 -7.9872 0
      vertex -14.3541 -4.35427 0
      vertex -13.7051 -7.21046 0
    endloop
  endfacet
  facet normal 0 0 -1
    outer loop
      vertex -14.7118 -2.92635 0
      vertex -168.276 54.676 0
      vertex -14.9278 -1.47026 0
    endloop
  endfacet
  facet normal 0 0 -1
    outer loop
      vertex -13.5977 -7.9872 0
      vertex -14.7118 -2.92635 0
      vertex -14.3541 -4.35427 0
    endloop
  endfacet
  facet normal 0 0 -1
    outer loop
      vertex -13.659 -6.42768 0
      vertex -13.8582 -5.74025 0
      vertex -13.6142 -6.25614 0
    endloop
  endfacet
  facet normal 0 0 -1
    outer loop
      vertex -13.8582 -5.74025 0
      vertex -13.659 -6.42768 0
      vertex -13.7051 -7.21046 0
    endloop
  endfacet
  facet normal -0 0 -1
    outer loop
      vertex -13.659 6.42768 0
      vertex -13.8582 5.74025 0
      vertex -13.7051 7.21046 0
    endloop
  endfacet
  facet normal 0 0 -1
    outer loop
      vertex -13.8582 5.74025 0
      vertex -13.659 6.42768 0
      vertex -13.6142 6.25614 0
    endloop
  endfacet
  facet normal 0 0 -1
    outer loop
      vertex 0 15 0
      vertex 0.0499992 176.899 0
      vertex 0.0499992 14.9975 0
    endloop
  endfacet
  facet normal 0 0 -1
    outer loop
      vertex -1.47026 14.9278 0
      vertex 0.0499992 176.899 0
      vertex 0 15 0
    endloop
  endfacet
  facet normal 0 0 -1
    outer loop
      vertex -2.92635 14.7118 0
      vertex 0.0499992 176.899 0
      vertex -1.47026 14.9278 0
    endloop
  endfacet
  facet normal 0 0 -1
    outer loop
      vertex -4.35427 14.3541 0
      vertex 0.0499992 176.899 0
      vertex -2.92635 14.7118 0
    endloop
  endfacet
  facet normal 0 0 -1
    outer loop
      vertex -5.74025 13.8582 0
      vertex 0.0499992 176.899 0
      vertex -4.35427 14.3541 0
    endloop
  endfacet
  facet normal 0 0 -1
    outer loop
      vertex -7.07095 13.2288 0
      vertex 0.0499992 176.899 0
      vertex -5.74025 13.8582 0
    endloop
  endfacet
  facet normal -0 0 -1
    outer loop
      vertex 0.0499992 176.899 0
      vertex -7.07095 13.2288 0
      vertex 0 176.935 0
    endloop
  endfacet
  facet normal 0 0 -1
    outer loop
      vertex -8.33355 12.472 0
      vertex 0 176.935 0
      vertex -7.07095 13.2288 0
    endloop
  endfacet
  facet normal 0 0 -1
    outer loop
      vertex -11.0927 10.8062 0
      vertex -8.33355 12.472 0
      vertex -9.5159 11.5952 0
    endloop
  endfacet
  facet normal 0 0 -1
    outer loop
      vertex -10.3339 11.0042 0
      vertex -9.5159 11.5952 0
      vertex -10.1564 11.0146 0
    endloop
  endfacet
  facet normal 0 0 -1
    outer loop
      vertex -11.0927 10.8062 0
      vertex -9.5159 11.5952 0
      vertex -10.3339 11.0042 0
    endloop
  endfacet
  facet normal 0 0 -1
    outer loop
      vertex -11.7982 10.464 0
      vertex -8.33355 12.472 0
      vertex -11.0927 10.8062 0
    endloop
  endfacet
  facet normal -0 0 -1
    outer loop
      vertex -8.33355 12.472 0
      vertex -11.7982 10.464 0
      vertex 0 176.935 0
    endloop
  endfacet
  facet normal 0 0 -1
    outer loop
      vertex -168.276 54.676 0
      vertex -11.7982 10.464 0
      vertex -12.4234 9.99071 0
    endloop
  endfacet
  facet normal 0 0 -1
    outer loop
      vertex -168.276 54.676 0
      vertex -12.4234 9.99071 0
      vertex -12.9443 9.40456 0
    endloop
  endfacet
  facet normal 0 0 -1
    outer loop
      vertex -168.276 54.676 0
      vertex -12.9443 9.40456 0
      vertex -13.3408 8.72806 0
    endloop
  endfacet
  facet normal 0 0 -1
    outer loop
      vertex -168.276 54.676 0
      vertex -13.3408 8.72806 0
      vertex -13.5977 7.9872 0
    endloop
  endfacet
  facet normal 0 0 -1
    outer loop
      vertex -14.3541 4.35427 0
      vertex -13.5977 7.9872 0
      vertex -13.7051 7.21046 0
    endloop
  endfacet
  facet normal 0 0 -1
    outer loop
      vertex -14.3541 4.35427 0
      vertex -13.7051 7.21046 0
      vertex -13.8582 5.74025 0
    endloop
  endfacet
  facet normal -0 0 -1
    outer loop
      vertex -13.5977 7.9872 0
      vertex -14.3541 4.35427 0
      vertex -168.276 54.676 0
    endloop
  endfacet
  facet normal 0 0 -1
    outer loop
      vertex -168.276 54.676 0
      vertex -14.3541 4.35427 0
      vertex -14.7118 2.92635 0
    endloop
  endfacet
  facet normal 0 0 -1
    outer loop
      vertex -168.276 54.676 0
      vertex -14.7118 2.92635 0
      vertex -14.9278 1.47026 0
    endloop
  endfacet
  facet normal 0 0 -1
    outer loop
      vertex -14.9278 -1.47026 0
      vertex -168.276 54.676 0
      vertex -15 0 0
    endloop
  endfacet
  facet normal 0 0 -1
    outer loop
      vertex -15 0 0
      vertex -168.276 54.676 0
      vertex -14.9278 1.47026 0
    endloop
  endfacet
  facet normal 0 0 -1
    outer loop
      vertex -11.7982 10.464 0
      vertex -168.276 54.676 0
      vertex 0 176.935 0
    endloop
  endfacet
  facet normal 0 0 1
    outer loop
      vertex -168.276 54.676 8
      vertex 0.0499992 176.899 8
      vertex 0 176.935 8
    endloop
  endfacet
  facet normal 0 0 1
    outer loop
      vertex 0.0499992 176.899 8
      vertex -168.276 54.676 8
      vertex 0.0499992 -143.144 8
    endloop
  endfacet
  facet normal 0 0 1
    outer loop
      vertex 0.0499992 -143.144 8
      vertex -168.276 54.676 8
      vertex -104 -143.144 8
    endloop
  endfacet
  facet normal -0.951056 -0.309019 0
    outer loop
      vertex -104 -143.144 0
      vertex -168.276 54.676 8
      vertex -168.276 54.676 0
    endloop
  endfacet
  facet normal -0.951056 -0.309019 0
    outer loop
      vertex -168.276 54.676 8
      vertex -104 -143.144 0
      vertex -104 -143.144 8
    endloop
  endfacet
  facet normal -0.740935 0.671577 0
    outer loop
      vertex -11.5952 9.5159 -6
      vertex -10.6066 10.6066 -3
      vertex -10.6066 10.6066 -6
    endloop
  endfacet
  facet normal -0.740935 0.671577 0
    outer loop
      vertex -10.6066 10.6066 -3
      vertex -11.5952 9.5159 -6
      vertex -11.5952 9.5159 -3
    endloop
  endfacet
  facet normal 0.0499384 -0.998752 0
    outer loop
      vertex 0 -15 -6
      vertex 0.0499992 -14.9975 0
      vertex 0 -15 0
    endloop
  endfacet
  facet normal 0.0499384 -0.998752 0
    outer loop
      vertex 0.0499992 -14.9975 0
      vertex 0 -15 -6
      vertex 0.0499992 -14.9975 -6
    endloop
  endfacet
  facet normal -0.59566 -0.803237 0
    outer loop
      vertex -9.5159 -11.5952 -6
      vertex -8.33355 -12.472 0
      vertex -9.5159 -11.5952 0
    endloop
  endfacet
  facet normal -0.59566 -0.803237 -0
    outer loop
      vertex -8.33355 -12.472 0
      vertex -9.5159 -11.5952 -6
      vertex -8.33355 -12.472 -6
    endloop
  endfacet
  facet normal -0.242996 -0.970027 0
    outer loop
      vertex -4.35427 -14.3541 -6
      vertex -2.92635 -14.7118 0
      vertex -4.35427 -14.3541 0
    endloop
  endfacet
  facet normal -0.242996 -0.970027 -0
    outer loop
      vertex -2.92635 -14.7118 0
      vertex -4.35427 -14.3541 -6
      vertex -2.92635 -14.7118 -6
    endloop
  endfacet
  facet normal -0.59566 0.803237 0
    outer loop
      vertex -8.33355 12.472 -6
      vertex -9.5159 11.5952 0
      vertex -8.33355 12.472 0
    endloop
  endfacet
  facet normal -0.59566 0.803237 0
    outer loop
      vertex -9.5159 11.5952 0
      vertex -8.33355 12.472 -6
      vertex -9.5159 11.5952 -6
    endloop
  endfacet
  facet normal -0.998796 -0.0490479 0
    outer loop
      vertex -14.9278 -1.47026 -6
      vertex -15 0 0
      vertex -15 0 -6
    endloop
  endfacet
  facet normal -0.998796 -0.0490479 0
    outer loop
      vertex -15 0 0
      vertex -14.9278 -1.47026 -6
      vertex -14.9278 -1.47026 0
    endloop
  endfacet
  facet normal -0.970027 -0.242996 0
    outer loop
      vertex -14.3541 -4.35427 -6
      vertex -14.7118 -2.92635 0
      vertex -14.7118 -2.92635 -6
    endloop
  endfacet
  facet normal -0.970027 -0.242996 0
    outer loop
      vertex -14.7118 -2.92635 0
      vertex -14.3541 -4.35427 -6
      vertex -14.3541 -4.35427 0
    endloop
  endfacet
  facet normal -0.514116 0.857721 0
    outer loop
      vertex -7.07095 13.2288 -6
      vertex -8.33355 12.472 0
      vertex -7.07095 13.2288 0
    endloop
  endfacet
  facet normal -0.514116 0.857721 0
    outer loop
      vertex -8.33355 12.472 0
      vertex -7.07095 13.2288 -6
      vertex -8.33355 12.472 -6
    endloop
  endfacet
  facet normal -0.903988 -0.427558 0
    outer loop
      vertex -13.8582 -5.74025 -6
      vertex -13.6142 -6.25614 -3
      vertex -13.8582 -5.74025 0
    endloop
  endfacet
  facet normal -0.903983 -0.427569 -2.34731e-06
    outer loop
      vertex -13.2288 -7.07095 -6
      vertex -13.6142 -6.25614 -3
      vertex -13.8582 -5.74025 -6
    endloop
  endfacet
  facet normal -0.903979 -0.427576 0
    outer loop
      vertex -13.6142 -6.25614 -3
      vertex -13.2288 -7.07095 -6
      vertex -13.2288 -7.07095 -3
    endloop
  endfacet
  facet normal -0.903988 -0.427558 0
    outer loop
      vertex -13.8582 -5.74025 0
      vertex -13.6142 -6.25614 -3
      vertex -13.6142 -6.25614 0
    endloop
  endfacet
  facet normal -0.427569 0.903983 0
    outer loop
      vertex -5.74025 13.8582 -6
      vertex -7.07095 13.2288 0
      vertex -5.74025 13.8582 0
    endloop
  endfacet
  facet normal -0.427569 0.903983 0
    outer loop
      vertex -7.07095 13.2288 0
      vertex -5.74025 13.8582 -6
      vertex -7.07095 13.2288 -6
    endloop
  endfacet
  facet normal -0.941547 -0.336883 0
    outer loop
      vertex -13.8582 -5.74025 -6
      vertex -14.3541 -4.35427 0
      vertex -14.3541 -4.35427 -6
    endloop
  endfacet
  facet normal -0.941547 -0.336883 0
    outer loop
      vertex -14.3541 -4.35427 0
      vertex -13.8582 -5.74025 -6
      vertex -13.8582 -5.74025 0
    endloop
  endfacet
  facet normal -0.146737 0.989176 0
    outer loop
      vertex -1.47026 14.9278 -6
      vertex -2.92635 14.7118 0
      vertex -1.47026 14.9278 0
    endloop
  endfacet
  facet normal -0.146737 0.989176 0
    outer loop
      vertex -2.92635 14.7118 0
      vertex -1.47026 14.9278 -6
      vertex -2.92635 14.7118 -6
    endloop
  endfacet
  facet normal -0.242996 0.970027 0
    outer loop
      vertex -2.92635 14.7118 -6
      vertex -4.35427 14.3541 0
      vertex -2.92635 14.7118 0
    endloop
  endfacet
  facet normal -0.242996 0.970027 0
    outer loop
      vertex -4.35427 14.3541 0
      vertex -2.92635 14.7118 -6
      vertex -4.35427 14.3541 -6
    endloop
  endfacet
  facet normal 0.0499384 0.998752 -0
    outer loop
      vertex 0.0499992 14.9975 -6
      vertex 0 15 0
      vertex 0.0499992 14.9975 0
    endloop
  endfacet
  facet normal 0.0499384 0.998752 0
    outer loop
      vertex 0 15 0
      vertex 0.0499992 14.9975 -6
      vertex 0 15 -6
    endloop
  endfacet
  facet normal -0.857721 0.514116 0
    outer loop
      vertex -13.2288 7.07095 -6
      vertex -12.472 8.33355 -3
      vertex -12.472 8.33355 -6
    endloop
  endfacet
  facet normal -0.857721 0.514116 0
    outer loop
      vertex -12.472 8.33355 -3
      vertex -13.2288 7.07095 -6
      vertex -13.2288 7.07095 -3
    endloop
  endfacet
  facet normal -0.671613 0.740902 0
    outer loop
      vertex -9.5159 11.5952 0
      vertex -10.1564 11.0146 -3
      vertex -10.1564 11.0146 0
    endloop
  endfacet
  facet normal -0.671613 0.740902 0
    outer loop
      vertex -9.5159 11.5952 -6
      vertex -10.1564 11.0146 -3
      vertex -9.5159 11.5952 0
    endloop
  endfacet
  facet normal -0.671577 0.740935 1.40665e-05
    outer loop
      vertex -10.6066 10.6066 -6
      vertex -10.1564 11.0146 -3
      vertex -9.5159 11.5952 -6
    endloop
  endfacet
  facet normal -0.671525 0.740982 0
    outer loop
      vertex -10.1564 11.0146 -3
      vertex -10.6066 10.6066 -6
      vertex -10.6066 10.6066 -3
    endloop
  endfacet
  facet normal -0.857721 -0.514116 0
    outer loop
      vertex -12.472 -8.33355 -6
      vertex -13.2288 -7.07095 -3
      vertex -13.2288 -7.07095 -6
    endloop
  endfacet
  facet normal -0.857721 -0.514116 0
    outer loop
      vertex -13.2288 -7.07095 -3
      vertex -12.472 -8.33355 -6
      vertex -12.472 -8.33355 -3
    endloop
  endfacet
  facet normal -0.427569 -0.903983 0
    outer loop
      vertex -7.07095 -13.2288 -6
      vertex -5.74025 -13.8582 0
      vertex -7.07095 -13.2288 0
    endloop
  endfacet
  facet normal -0.427569 -0.903983 -0
    outer loop
      vertex -5.74025 -13.8582 0
      vertex -7.07095 -13.2288 -6
      vertex -5.74025 -13.8582 -6
    endloop
  endfacet
  facet normal -0.740935 -0.671577 0
    outer loop
      vertex -10.6066 -10.6066 -6
      vertex -11.5952 -9.5159 -3
      vertex -11.5952 -9.5159 -6
    endloop
  endfacet
  facet normal -0.740935 -0.671577 0
    outer loop
      vertex -11.5952 -9.5159 -3
      vertex -10.6066 -10.6066 -6
      vertex -10.6066 -10.6066 -3
    endloop
  endfacet
  facet normal -0.336883 0.941547 0
    outer loop
      vertex -4.35427 14.3541 -6
      vertex -5.74025 13.8582 0
      vertex -4.35427 14.3541 0
    endloop
  endfacet
  facet normal -0.336883 0.941547 0
    outer loop
      vertex -5.74025 13.8582 0
      vertex -4.35427 14.3541 -6
      vertex -5.74025 13.8582 -6
    endloop
  endfacet
  facet normal -0.514116 -0.857721 0
    outer loop
      vertex -8.33355 -12.472 -6
      vertex -7.07095 -13.2288 0
      vertex -8.33355 -12.472 0
    endloop
  endfacet
  facet normal -0.514116 -0.857721 -0
    outer loop
      vertex -7.07095 -13.2288 0
      vertex -8.33355 -12.472 -6
      vertex -7.07095 -13.2288 -6
    endloop
  endfacet
  facet normal -0.0490479 0.998796 0
    outer loop
      vertex 0 15 -6
      vertex -1.47026 14.9278 0
      vertex 0 15 0
    endloop
  endfacet
  facet normal -0.0490479 0.998796 0
    outer loop
      vertex -1.47026 14.9278 0
      vertex 0 15 -6
      vertex -1.47026 14.9278 -6
    endloop
  endfacet
  facet normal -0.970027 0.242996 0
    outer loop
      vertex -14.7118 2.92635 -6
      vertex -14.3541 4.35427 0
      vertex -14.3541 4.35427 -6
    endloop
  endfacet
  facet normal -0.970027 0.242996 0
    outer loop
      vertex -14.3541 4.35427 0
      vertex -14.7118 2.92635 -6
      vertex -14.7118 2.92635 0
    endloop
  endfacet
  facet normal -0.941547 0.336883 0
    outer loop
      vertex -14.3541 4.35427 -6
      vertex -13.8582 5.74025 0
      vertex -13.8582 5.74025 -6
    endloop
  endfacet
  facet normal -0.941547 0.336883 0
    outer loop
      vertex -13.8582 5.74025 0
      vertex -14.3541 4.35427 -6
      vertex -14.3541 4.35427 0
    endloop
  endfacet
  facet normal -0.803237 -0.59566 0
    outer loop
      vertex -11.5952 -9.5159 -6
      vertex -12.472 -8.33355 -3
      vertex -12.472 -8.33355 -6
    endloop
  endfacet
  facet normal -0.803237 -0.59566 0
    outer loop
      vertex -12.472 -8.33355 -3
      vertex -11.5952 -9.5159 -6
      vertex -11.5952 -9.5159 -3
    endloop
  endfacet
  facet normal -0.989176 -0.146737 0
    outer loop
      vertex -14.7118 -2.92635 -6
      vertex -14.9278 -1.47026 0
      vertex -14.9278 -1.47026 -6
    endloop
  endfacet
  facet normal -0.989176 -0.146737 0
    outer loop
      vertex -14.9278 -1.47026 0
      vertex -14.7118 -2.92635 -6
      vertex -14.7118 -2.92635 0
    endloop
  endfacet
  facet normal -0.903979 0.427576 0
    outer loop
      vertex -13.2288 7.07095 -6
      vertex -13.6142 6.25614 -3
      vertex -13.2288 7.07095 -3
    endloop
  endfacet
  facet normal -0.903983 0.427569 -2.34731e-06
    outer loop
      vertex -13.8582 5.74025 -6
      vertex -13.6142 6.25614 -3
      vertex -13.2288 7.07095 -6
    endloop
  endfacet
  facet normal -0.903988 0.427558 0
    outer loop
      vertex -13.8582 5.74025 0
      vertex -13.6142 6.25614 -3
      vertex -13.8582 5.74025 -6
    endloop
  endfacet
  facet normal -0.903988 0.427558 0
    outer loop
      vertex -13.6142 6.25614 -3
      vertex -13.8582 5.74025 0
      vertex -13.6142 6.25614 0
    endloop
  endfacet
  facet normal 0 0 -1
    outer loop
      vertex -1.47026 -14.9278 -6
      vertex 0.0499992 -14.9975 -6
      vertex 0 -15 -6
    endloop
  endfacet
  facet normal 0 0 -1
    outer loop
      vertex 0.0499992 -14.9975 -6
      vertex -1.47026 -14.9278 -6
      vertex 0.0499992 14.9975 -6
    endloop
  endfacet
  facet normal 0 0 -1
    outer loop
      vertex -1.47026 14.9278 -6
      vertex 0.0499992 14.9975 -6
      vertex -1.47026 -14.9278 -6
    endloop
  endfacet
  facet normal -0 0 -1
    outer loop
      vertex 0.0499992 14.9975 -6
      vertex -1.47026 14.9278 -6
      vertex 0 15 -6
    endloop
  endfacet
  facet normal 0 0 -1
    outer loop
      vertex -2.92635 -14.7118 -6
      vertex -1.47026 14.9278 -6
      vertex -1.47026 -14.9278 -6
    endloop
  endfacet
  facet normal 0 0 -1
    outer loop
      vertex -2.92635 -14.7118 -6
      vertex -2.92635 14.7118 -6
      vertex -1.47026 14.9278 -6
    endloop
  endfacet
  facet normal 0 0 -1
    outer loop
      vertex -4.35427 -14.3541 -6
      vertex -2.92635 14.7118 -6
      vertex -2.92635 -14.7118 -6
    endloop
  endfacet
  facet normal 0 0 -1
    outer loop
      vertex -4.35427 -14.3541 -6
      vertex -4.35427 14.3541 -6
      vertex -2.92635 14.7118 -6
    endloop
  endfacet
  facet normal 0 0 -1
    outer loop
      vertex -5.74025 -13.8582 -6
      vertex -4.35427 14.3541 -6
      vertex -4.35427 -14.3541 -6
    endloop
  endfacet
  facet normal 0 0 -1
    outer loop
      vertex -5.74025 -13.8582 -6
      vertex -5.74025 13.8582 -6
      vertex -4.35427 14.3541 -6
    endloop
  endfacet
  facet normal 0 0 -1
    outer loop
      vertex -7.07095 -13.2288 -6
      vertex -5.74025 13.8582 -6
      vertex -5.74025 -13.8582 -6
    endloop
  endfacet
  facet normal 0 0 -1
    outer loop
      vertex -7.07095 -13.2288 -6
      vertex -7.07095 13.2288 -6
      vertex -5.74025 13.8582 -6
    endloop
  endfacet
  facet normal 0 0 -1
    outer loop
      vertex -8.33355 -12.472 -6
      vertex -7.07095 13.2288 -6
      vertex -7.07095 -13.2288 -6
    endloop
  endfacet
  facet normal 0 0 -1
    outer loop
      vertex -8.33355 -12.472 -6
      vertex -8.33355 12.472 -6
      vertex -7.07095 13.2288 -6
    endloop
  endfacet
  facet normal 0 0 -1
    outer loop
      vertex -9.5159 -11.5952 -6
      vertex -8.33355 12.472 -6
      vertex -8.33355 -12.472 -6
    endloop
  endfacet
  facet normal 0 0 -1
    outer loop
      vertex -9.5159 -11.5952 -6
      vertex -9.5159 11.5952 -6
      vertex -8.33355 12.472 -6
    endloop
  endfacet
  facet normal 0 0 -1
    outer loop
      vertex -10.6066 -10.6066 -6
      vertex -9.5159 11.5952 -6
      vertex -9.5159 -11.5952 -6
    endloop
  endfacet
  facet normal 0 0 -1
    outer loop
      vertex -10.6066 -10.6066 -6
      vertex -10.6066 10.6066 -6
      vertex -9.5159 11.5952 -6
    endloop
  endfacet
  facet normal 0 0 -1
    outer loop
      vertex -11.5952 -9.5159 -6
      vertex -10.6066 10.6066 -6
      vertex -10.6066 -10.6066 -6
    endloop
  endfacet
  facet normal 0 0 -1
    outer loop
      vertex -11.5952 -9.5159 -6
      vertex -11.5952 9.5159 -6
      vertex -10.6066 10.6066 -6
    endloop
  endfacet
  facet normal 0 0 -1
    outer loop
      vertex -12.472 -8.33355 -6
      vertex -11.5952 9.5159 -6
      vertex -11.5952 -9.5159 -6
    endloop
  endfacet
  facet normal 0 0 -1
    outer loop
      vertex -12.472 -8.33355 -6
      vertex -12.472 8.33355 -6
      vertex -11.5952 9.5159 -6
    endloop
  endfacet
  facet normal 0 0 -1
    outer loop
      vertex -13.2288 -7.07095 -6
      vertex -12.472 8.33355 -6
      vertex -12.472 -8.33355 -6
    endloop
  endfacet
  facet normal 0 0 -1
    outer loop
      vertex -13.2288 -7.07095 -6
      vertex -13.2288 7.07095 -6
      vertex -12.472 8.33355 -6
    endloop
  endfacet
  facet normal 0 0 -1
    outer loop
      vertex -13.8582 -5.74025 -6
      vertex -13.2288 7.07095 -6
      vertex -13.2288 -7.07095 -6
    endloop
  endfacet
  facet normal 0 0 -1
    outer loop
      vertex -13.8582 -5.74025 -6
      vertex -13.8582 5.74025 -6
      vertex -13.2288 7.07095 -6
    endloop
  endfacet
  facet normal 0 0 -1
    outer loop
      vertex -14.3541 -4.35427 -6
      vertex -13.8582 5.74025 -6
      vertex -13.8582 -5.74025 -6
    endloop
  endfacet
  facet normal 0 0 -1
    outer loop
      vertex -14.3541 -4.35427 -6
      vertex -14.3541 4.35427 -6
      vertex -13.8582 5.74025 -6
    endloop
  endfacet
  facet normal 0 0 -1
    outer loop
      vertex -14.7118 -2.92635 -6
      vertex -14.3541 4.35427 -6
      vertex -14.3541 -4.35427 -6
    endloop
  endfacet
  facet normal 0 0 -1
    outer loop
      vertex -14.7118 -2.92635 -6
      vertex -14.7118 2.92635 -6
      vertex -14.3541 4.35427 -6
    endloop
  endfacet
  facet normal 0 0 -1
    outer loop
      vertex -14.9278 -1.47026 -6
      vertex -14.7118 2.92635 -6
      vertex -14.7118 -2.92635 -6
    endloop
  endfacet
  facet normal 0 0 -1
    outer loop
      vertex -14.9278 -1.47026 -6
      vertex -14.9278 1.47026 -6
      vertex -14.7118 2.92635 -6
    endloop
  endfacet
  facet normal 0 -0 -1
    outer loop
      vertex -14.9278 1.47026 -6
      vertex -14.9278 -1.47026 -6
      vertex -15 0 -6
    endloop
  endfacet
  facet normal -0.671525 -0.740982 -0
    outer loop
      vertex -10.6066 -10.6066 -3
      vertex -10.6066 -10.6066 -6
      vertex -10.1564 -11.0146 -3
    endloop
  endfacet
  facet normal -0.671613 -0.740902 0
    outer loop
      vertex -10.1564 -11.0146 -3
      vertex -9.5159 -11.5952 0
      vertex -10.1564 -11.0146 0
    endloop
  endfacet
  facet normal -0.671577 -0.740935 1.40665e-05
    outer loop
      vertex -9.5159 -11.5952 -6
      vertex -10.1564 -11.0146 -3
      vertex -10.6066 -10.6066 -6
    endloop
  endfacet
  facet normal -0.671613 -0.740902 0
    outer loop
      vertex -10.1564 -11.0146 -3
      vertex -9.5159 -11.5952 -6
      vertex -9.5159 -11.5952 0
    endloop
  endfacet
  facet normal -0.803237 0.59566 0
    outer loop
      vertex -12.472 8.33355 -6
      vertex -11.5952 9.5159 -3
      vertex -11.5952 9.5159 -6
    endloop
  endfacet
  facet normal -0.803237 0.59566 0
    outer loop
      vertex -11.5952 9.5159 -3
      vertex -12.472 8.33355 -6
      vertex -12.472 8.33355 -3
    endloop
  endfacet
  facet normal -0.0490479 -0.998796 0
    outer loop
      vertex -1.47026 -14.9278 -6
      vertex 0 -15 0
      vertex -1.47026 -14.9278 0
    endloop
  endfacet
  facet normal -0.0490479 -0.998796 -0
    outer loop
      vertex 0 -15 0
      vertex -1.47026 -14.9278 -6
      vertex 0 -15 -6
    endloop
  endfacet
  facet normal -0.146737 -0.989176 0
    outer loop
      vertex -2.92635 -14.7118 -6
      vertex -1.47026 -14.9278 0
      vertex -2.92635 -14.7118 0
    endloop
  endfacet
  facet normal -0.146737 -0.989176 -0
    outer loop
      vertex -1.47026 -14.9278 0
      vertex -2.92635 -14.7118 -6
      vertex -1.47026 -14.9278 -6
    endloop
  endfacet
  facet normal -0.989176 0.146737 0
    outer loop
      vertex -14.9278 1.47026 -6
      vertex -14.7118 2.92635 0
      vertex -14.7118 2.92635 -6
    endloop
  endfacet
  facet normal -0.989176 0.146737 0
    outer loop
      vertex -14.7118 2.92635 0
      vertex -14.9278 1.47026 -6
      vertex -14.9278 1.47026 0
    endloop
  endfacet
  facet normal -0.998796 0.0490479 0
    outer loop
      vertex -15 0 -6
      vertex -14.9278 1.47026 0
      vertex -14.9278 1.47026 -6
    endloop
  endfacet
  facet normal -0.998796 0.0490479 0
    outer loop
      vertex -14.9278 1.47026 0
      vertex -15 0 -6
      vertex -15 0 0
    endloop
  endfacet
  facet normal -0.336883 -0.941547 0
    outer loop
      vertex -5.74025 -13.8582 -6
      vertex -4.35427 -14.3541 0
      vertex -5.74025 -13.8582 0
    endloop
  endfacet
  facet normal -0.336883 -0.941547 -0
    outer loop
      vertex -4.35427 -14.3541 0
      vertex -5.74025 -13.8582 -6
      vertex -4.35427 -14.3541 -6
    endloop
  endfacet
  facet normal 1 0 0
    outer loop
      vertex 0.0499992 176.899 8
      vertex 0.0499992 14.9975 0
      vertex 0.0499992 176.899 0
    endloop
  endfacet
  facet normal 1 0 0
    outer loop
      vertex 0.0499992 14.9975 0
      vertex 0.0499992 -14.9975 0
      vertex 0.0499992 14.9975 -6
    endloop
  endfacet
  facet normal 1 -0 0
    outer loop
      vertex 0.0499992 -143.144 8
      vertex 0.0499992 14.9975 0
      vertex 0.0499992 176.899 8
    endloop
  endfacet
  facet normal 1 0 0
    outer loop
      vertex 0.0499992 14.9975 0
      vertex 0.0499992 -143.144 8
      vertex 0.0499992 -14.9975 0
    endloop
  endfacet
  facet normal 1 0 0
    outer loop
      vertex 0.0499992 -14.9975 0
      vertex 0.0499992 -143.144 8
      vertex 0.0499992 -143.144 0
    endloop
  endfacet
  facet normal 1 0 0
    outer loop
      vertex 0.0499992 14.9975 -6
      vertex 0.0499992 -14.9975 0
      vertex 0.0499992 -14.9975 -6
    endloop
  endfacet
  facet normal 1 -0 0
    outer loop
      vertex 0.0499992 -158.144 5.5
      vertex 0.0499992 -143.144 2.5
      vertex 0.0499992 -143.144 5.5
    endloop
  endfacet
  facet normal 1 0 0
    outer loop
      vertex 0.0499992 -143.144 2.5
      vertex 0.0499992 -158.144 5.5
      vertex 0.0499992 -158.144 2.5
    endloop
  endfacet
endsolid OpenSCAD_Model
