solid OpenSCAD_Model
  facet normal 0.956948 0.290259 0
    outer loop
      vertex 15.9231 0.780361 0
      vertex 15.6955 1.53073 -3
      vertex 15.6955 1.53073 0
    endloop
  endfacet
  facet normal 0.956948 0.290259 0
    outer loop
      vertex 15.6955 1.53073 -3
      vertex 15.9231 0.780361 0
      vertex 15.9231 0.780361 -3
    endloop
  endfacet
  facet normal 0.99518 0.0980691 0
    outer loop
      vertex 16 0 0
      vertex 15.9231 0.780361 -3
      vertex 15.9231 0.780361 0
    endloop
  endfacet
  facet normal 0.99518 0.0980691 0
    outer loop
      vertex 15.9231 0.780361 -3
      vertex 16 0 0
      vertex 16 0 -3
    endloop
  endfacet
  facet normal 0.881943 0.471356 0
    outer loop
      vertex 15.6955 1.53073 0
      vertex 15.3259 2.22228 -3
      vertex 15.3259 2.22228 0
    endloop
  endfacet
  facet normal 0.881943 0.471356 0
    outer loop
      vertex 15.3259 2.22228 -3
      vertex 15.6955 1.53073 0
      vertex 15.6955 1.53073 -3
    endloop
  endfacet
  facet normal 0.881943 -0.471356 0
    outer loop
      vertex 15.3259 -2.22228 0
      vertex 15.6955 -1.53073 -3
      vertex 15.6955 -1.53073 0
    endloop
  endfacet
  facet normal 0.881943 -0.471356 0
    outer loop
      vertex 15.6955 -1.53073 -3
      vertex 15.3259 -2.22228 0
      vertex 15.3259 -2.22228 -3
    endloop
  endfacet
  facet normal 0.99518 -0.0980691 0
    outer loop
      vertex 15.9231 -0.780361 0
      vertex 16 0 -3
      vertex 16 0 0
    endloop
  endfacet
  facet normal 0.99518 -0.0980691 0
    outer loop
      vertex 16 0 -3
      vertex 15.9231 -0.780361 0
      vertex 15.9231 -0.780361 -3
    endloop
  endfacet
  facet normal 0.772982 0.634428 0
    outer loop
      vertex 15.3259 2.22228 0
      vertex 14.8284 2.82843 -3
      vertex 14.8284 2.82843 0
    endloop
  endfacet
  facet normal 0.772982 0.634428 0
    outer loop
      vertex 14.8284 2.82843 -3
      vertex 15.3259 2.22228 0
      vertex 15.3259 2.22228 -3
    endloop
  endfacet
  facet normal 0.956948 -0.290259 0
    outer loop
      vertex 15.6955 -1.53073 0
      vertex 15.9231 -0.780361 -3
      vertex 15.9231 -0.780361 0
    endloop
  endfacet
  facet normal 0.956948 -0.290259 0
    outer loop
      vertex 15.9231 -0.780361 -3
      vertex 15.6955 -1.53073 0
      vertex 15.6955 -1.53073 -3
    endloop
  endfacet
  facet normal 0.772982 -0.634428 0
    outer loop
      vertex 14.8284 -2.82843 0
      vertex 15.3259 -2.22228 -3
      vertex 15.3259 -2.22228 0
    endloop
  endfacet
  facet normal 0.772982 -0.634428 0
    outer loop
      vertex 15.3259 -2.22228 -3
      vertex 14.8284 -2.82843 0
      vertex 14.8284 -2.82843 -3
    endloop
  endfacet
  facet normal 0.634294 0.773092 -0
    outer loop
      vertex 14.8284 2.82843 -3
      vertex 14.7121 2.92385 0
      vertex 14.8284 2.82843 0
    endloop
  endfacet
  facet normal 0.634294 0.773092 0
    outer loop
      vertex 14.7121 2.92385 0
      vertex 14.8284 2.82843 -3
      vertex 14.7121 2.92385 -3
    endloop
  endfacet
  facet normal 0.634294 -0.773092 0
    outer loop
      vertex 14.7121 -2.92385 -3
      vertex 14.8284 -2.82843 0
      vertex 14.7121 -2.92385 0
    endloop
  endfacet
  facet normal 0.634294 -0.773092 0
    outer loop
      vertex 14.8284 -2.82843 0
      vertex 14.7121 -2.92385 -3
      vertex 14.8284 -2.82843 -3
    endloop
  endfacet
  facet normal 0 0 -1
    outer loop
      vertex 15 0 -3
      vertex 16 0 -3
      vertex 15.9231 -0.780361 -3
    endloop
  endfacet
  facet normal 0 0 -1
    outer loop
      vertex 14.9278 -1.47026 -3
      vertex 15.9231 -0.780361 -3
      vertex 15.6955 -1.53073 -3
    endloop
  endfacet
  facet normal 0 0 -1
    outer loop
      vertex 16 0 -3
      vertex 15 0 -3
      vertex 15.9231 0.780361 -3
    endloop
  endfacet
  facet normal 0 0 -1
    outer loop
      vertex 14.9278 -1.47026 -3
      vertex 15.6955 -1.53073 -3
      vertex 15.3259 -2.22228 -3
    endloop
  endfacet
  facet normal 0 0 -1
    outer loop
      vertex 14.9278 1.47026 -3
      vertex 15.9231 0.780361 -3
      vertex 15 0 -3
    endloop
  endfacet
  facet normal 0 0 -1
    outer loop
      vertex 15.9231 0.780361 -3
      vertex 14.9278 1.47026 -3
      vertex 15.6955 1.53073 -3
    endloop
  endfacet
  facet normal -0 0 -1
    outer loop
      vertex 15.9231 -0.780361 -3
      vertex 14.9278 -1.47026 -3
      vertex 15 0 -3
    endloop
  endfacet
  facet normal 0 0 -1
    outer loop
      vertex 14.8284 -2.82843 -3
      vertex 14.9278 -1.47026 -3
      vertex 15.3259 -2.22228 -3
    endloop
  endfacet
  facet normal 0 0 -1
    outer loop
      vertex 14.9278 -1.47026 -3
      vertex 14.8284 -2.82843 -3
      vertex 14.7121 -2.92385 -3
    endloop
  endfacet
  facet normal -0 0 -1
    outer loop
      vertex 15.6955 1.53073 -3
      vertex 14.9278 1.47026 -3
      vertex 15.3259 2.22228 -3
    endloop
  endfacet
  facet normal 0 0 -1
    outer loop
      vertex 14.9278 1.47026 -3
      vertex 14.8284 2.82843 -3
      vertex 15.3259 2.22228 -3
    endloop
  endfacet
  facet normal -0 -0 -1
    outer loop
      vertex 14.8284 2.82843 -3
      vertex 14.9278 1.47026 -3
      vertex 14.7121 2.92385 -3
    endloop
  endfacet
  facet normal 0.0195121 0.99981 -0
    outer loop
      vertex 4.17835 15.385 -3
      vertex 3.39437 15.4003 0
      vertex 4.17835 15.385 0
    endloop
  endfacet
  facet normal 0.0195121 0.99981 0
    outer loop
      vertex 3.39437 15.4003 0
      vertex 4.17835 15.385 -3
      vertex 3.39437 15.4003 -3
    endloop
  endfacet
  facet normal 0.214372 0.976752 -0
    outer loop
      vertex 4.94427 15.2169 -3
      vertex 4.17835 15.385 0
      vertex 4.94427 15.2169 0
    endloop
  endfacet
  facet normal 0.214372 0.976752 0
    outer loop
      vertex 4.17835 15.385 0
      vertex 4.94427 15.2169 -3
      vertex 4.17835 15.385 -3
    endloop
  endfacet
  facet normal -0.175735 0.984437 0
    outer loop
      vertex 3.39437 15.4003 -3
      vertex 2.62244 15.2625 0
      vertex 3.39437 15.4003 0
    endloop
  endfacet
  facet normal -0.175735 0.984437 0
    outer loop
      vertex 2.62244 15.2625 0
      vertex 3.39437 15.4003 -3
      vertex 2.62244 15.2625 -3
    endloop
  endfacet
  facet normal 0.400702 0.916208 -0
    outer loop
      vertex 5.66269 14.9027 -3
      vertex 4.94427 15.2169 0
      vertex 5.66269 14.9027 0
    endloop
  endfacet
  facet normal 0.400702 0.916208 0
    outer loop
      vertex 4.94427 15.2169 0
      vertex 5.66269 14.9027 -3
      vertex 4.94427 15.2169 -3
    endloop
  endfacet
  facet normal -0.364476 0.931213 0
    outer loop
      vertex 2.62244 15.2625 -3
      vertex 1.89224 14.9767 0
      vertex 2.62244 15.2625 0
    endloop
  endfacet
  facet normal -0.364476 0.931213 0
    outer loop
      vertex 1.89224 14.9767 0
      vertex 2.62244 15.2625 -3
      vertex 1.89224 14.9767 -3
    endloop
  endfacet
  facet normal 0 0 -1
    outer loop
      vertex 7.07095 13.2288 -3
      vertex 7.27223 13.2286 -3
      vertex 7.33383 13.0713 -3
    endloop
  endfacet
  facet normal 0 0 -1
    outer loop
      vertex 7.07095 13.2288 -3
      vertex 6.84947 13.8891 -3
      vertex 7.27223 13.2286 -3
    endloop
  endfacet
  facet normal 0 0 -1
    outer loop
      vertex 5.74025 13.8582 -3
      vertex 6.84947 13.8891 -3
      vertex 7.07095 13.2288 -3
    endloop
  endfacet
  facet normal -0 0 -1
    outer loop
      vertex 6.84947 13.8891 -3
      vertex 5.74025 13.8582 -3
      vertex 6.306 14.4543 -3
    endloop
  endfacet
  facet normal 0 0 -1
    outer loop
      vertex 5.74025 13.8582 -3
      vertex 5.66269 14.9027 -3
      vertex 6.306 14.4543 -3
    endloop
  endfacet
  facet normal 0 0 -1
    outer loop
      vertex 4.35427 14.3541 -3
      vertex 5.66269 14.9027 -3
      vertex 5.74025 13.8582 -3
    endloop
  endfacet
  facet normal -0 0 -1
    outer loop
      vertex 5.66269 14.9027 -3
      vertex 4.35427 14.3541 -3
      vertex 4.94427 15.2169 -3
    endloop
  endfacet
  facet normal 0 0 -1
    outer loop
      vertex 4.35427 14.3541 -3
      vertex 4.17835 15.385 -3
      vertex 4.94427 15.2169 -3
    endloop
  endfacet
  facet normal 0 0 -1
    outer loop
      vertex 4.35427 14.3541 -3
      vertex 3.39437 15.4003 -3
      vertex 4.17835 15.385 -3
    endloop
  endfacet
  facet normal 0 0 -1
    outer loop
      vertex 2.92635 14.7118 -3
      vertex 3.39437 15.4003 -3
      vertex 4.35427 14.3541 -3
    endloop
  endfacet
  facet normal 0 0 -1
    outer loop
      vertex 2.92635 14.7118 -3
      vertex 2.62244 15.2625 -3
      vertex 3.39437 15.4003 -3
    endloop
  endfacet
  facet normal 0 0 -1
    outer loop
      vertex 2.92635 14.7118 -3
      vertex 1.89224 14.9767 -3
      vertex 2.62244 15.2625 -3
    endloop
  endfacet
  facet normal 0 -0 -1
    outer loop
      vertex 1.89224 14.9767 -3
      vertex 2.92635 14.7118 -3
      vertex 1.75079 14.8862 -3
    endloop
  endfacet
  facet normal 0.720828 0.693114 0
    outer loop
      vertex 6.84947 13.8891 0
      vertex 6.306 14.4543 -3
      vertex 6.306 14.4543 0
    endloop
  endfacet
  facet normal 0.720828 0.693114 0
    outer loop
      vertex 6.306 14.4543 -3
      vertex 6.84947 13.8891 0
      vertex 6.84947 13.8891 -3
    endloop
  endfacet
  facet normal 0.842248 0.53909 0
    outer loop
      vertex 7.27223 13.2286 0
      vertex 6.84947 13.8891 -3
      vertex 6.84947 13.8891 0
    endloop
  endfacet
  facet normal 0.842248 0.53909 0
    outer loop
      vertex 6.84947 13.8891 -3
      vertex 7.27223 13.2286 0
      vertex 7.27223 13.2286 -3
    endloop
  endfacet
  facet normal 0.57182 0.820379 -0
    outer loop
      vertex 6.306 14.4543 -3
      vertex 5.66269 14.9027 0
      vertex 6.306 14.4543 0
    endloop
  endfacet
  facet normal 0.57182 0.820379 0
    outer loop
      vertex 5.66269 14.9027 0
      vertex 6.306 14.4543 -3
      vertex 5.66269 14.9027 -3
    endloop
  endfacet
  facet normal 0.931147 0.364645 0
    outer loop
      vertex 7.33383 13.0713 0
      vertex 7.27223 13.2286 -3
      vertex 7.27223 13.2286 0
    endloop
  endfacet
  facet normal 0.931147 0.364645 0
    outer loop
      vertex 7.27223 13.2286 -3
      vertex 7.33383 13.0713 0
      vertex 7.33383 13.0713 -3
    endloop
  endfacet
  facet normal -0.538935 0.842347 0
    outer loop
      vertex 1.89224 14.9767 -3
      vertex 1.75079 14.8862 0
      vertex 1.89224 14.9767 0
    endloop
  endfacet
  facet normal -0.538935 0.842347 0
    outer loop
      vertex 1.75079 14.8862 0
      vertex 1.89224 14.9767 -3
      vertex 1.75079 14.8862 -3
    endloop
  endfacet
  facet normal 0.720828 -0.693114 0
    outer loop
      vertex 6.306 -14.4543 0
      vertex 6.84947 -13.8891 -3
      vertex 6.84947 -13.8891 0
    endloop
  endfacet
  facet normal 0.720828 -0.693114 0
    outer loop
      vertex 6.84947 -13.8891 -3
      vertex 6.306 -14.4543 0
      vertex 6.306 -14.4543 -3
    endloop
  endfacet
  facet normal 0.931147 -0.364645 0
    outer loop
      vertex 7.27223 -13.2286 0
      vertex 7.33383 -13.0713 -3
      vertex 7.33383 -13.0713 0
    endloop
  endfacet
  facet normal 0.931147 -0.364645 0
    outer loop
      vertex 7.33383 -13.0713 -3
      vertex 7.27223 -13.2286 0
      vertex 7.27223 -13.2286 -3
    endloop
  endfacet
  facet normal 0.400702 -0.916208 0
    outer loop
      vertex 4.94427 -15.2169 -3
      vertex 5.66269 -14.9027 0
      vertex 4.94427 -15.2169 0
    endloop
  endfacet
  facet normal 0.400702 -0.916208 0
    outer loop
      vertex 5.66269 -14.9027 0
      vertex 4.94427 -15.2169 -3
      vertex 5.66269 -14.9027 -3
    endloop
  endfacet
  facet normal 0.842248 -0.53909 0
    outer loop
      vertex 6.84947 -13.8891 0
      vertex 7.27223 -13.2286 -3
      vertex 7.27223 -13.2286 0
    endloop
  endfacet
  facet normal 0.842248 -0.53909 0
    outer loop
      vertex 7.27223 -13.2286 -3
      vertex 6.84947 -13.8891 0
      vertex 6.84947 -13.8891 -3
    endloop
  endfacet
  facet normal -0.364476 -0.931213 0
    outer loop
      vertex 1.89224 -14.9767 -3
      vertex 2.62244 -15.2625 0
      vertex 1.89224 -14.9767 0
    endloop
  endfacet
  facet normal -0.364476 -0.931213 -0
    outer loop
      vertex 2.62244 -15.2625 0
      vertex 1.89224 -14.9767 -3
      vertex 2.62244 -15.2625 -3
    endloop
  endfacet
  facet normal -0.538935 -0.842347 0
    outer loop
      vertex 1.75079 -14.8862 -3
      vertex 1.89224 -14.9767 0
      vertex 1.75079 -14.8862 0
    endloop
  endfacet
  facet normal -0.538935 -0.842347 -0
    outer loop
      vertex 1.89224 -14.9767 0
      vertex 1.75079 -14.8862 -3
      vertex 1.89224 -14.9767 -3
    endloop
  endfacet
  facet normal 0.214372 -0.976752 0
    outer loop
      vertex 4.17835 -15.385 -3
      vertex 4.94427 -15.2169 0
      vertex 4.17835 -15.385 0
    endloop
  endfacet
  facet normal 0.214372 -0.976752 0
    outer loop
      vertex 4.94427 -15.2169 0
      vertex 4.17835 -15.385 -3
      vertex 4.94427 -15.2169 -3
    endloop
  endfacet
  facet normal 0.57182 -0.820379 0
    outer loop
      vertex 5.66269 -14.9027 -3
      vertex 6.306 -14.4543 0
      vertex 5.66269 -14.9027 0
    endloop
  endfacet
  facet normal 0.57182 -0.820379 0
    outer loop
      vertex 6.306 -14.4543 0
      vertex 5.66269 -14.9027 -3
      vertex 6.306 -14.4543 -3
    endloop
  endfacet
  facet normal 0.0195121 -0.99981 0
    outer loop
      vertex 3.39437 -15.4003 -3
      vertex 4.17835 -15.385 0
      vertex 3.39437 -15.4003 0
    endloop
  endfacet
  facet normal 0.0195121 -0.99981 0
    outer loop
      vertex 4.17835 -15.385 0
      vertex 3.39437 -15.4003 -3
      vertex 4.17835 -15.385 -3
    endloop
  endfacet
  facet normal -0.175735 -0.984437 0
    outer loop
      vertex 2.62244 -15.2625 -3
      vertex 3.39437 -15.4003 0
      vertex 2.62244 -15.2625 0
    endloop
  endfacet
  facet normal -0.175735 -0.984437 -0
    outer loop
      vertex 3.39437 -15.4003 0
      vertex 2.62244 -15.2625 -3
      vertex 3.39437 -15.4003 -3
    endloop
  endfacet
  facet normal -0 0 -1
    outer loop
      vertex 7.27223 -13.2286 -3
      vertex 7.07095 -13.2288 -3
      vertex 7.33383 -13.0713 -3
    endloop
  endfacet
  facet normal 0 0 -1
    outer loop
      vertex 6.84947 -13.8891 -3
      vertex 7.07095 -13.2288 -3
      vertex 7.27223 -13.2286 -3
    endloop
  endfacet
  facet normal 0 0 -1
    outer loop
      vertex 5.74025 -13.8582 -3
      vertex 6.84947 -13.8891 -3
      vertex 6.306 -14.4543 -3
    endloop
  endfacet
  facet normal 0 0 -1
    outer loop
      vertex 6.84947 -13.8891 -3
      vertex 5.74025 -13.8582 -3
      vertex 7.07095 -13.2288 -3
    endloop
  endfacet
  facet normal 0 0 -1
    outer loop
      vertex 5.66269 -14.9027 -3
      vertex 5.74025 -13.8582 -3
      vertex 6.306 -14.4543 -3
    endloop
  endfacet
  facet normal 0 0 -1
    outer loop
      vertex 4.35427 -14.3541 -3
      vertex 5.66269 -14.9027 -3
      vertex 4.94427 -15.2169 -3
    endloop
  endfacet
  facet normal 0 0 -1
    outer loop
      vertex 5.66269 -14.9027 -3
      vertex 4.35427 -14.3541 -3
      vertex 5.74025 -13.8582 -3
    endloop
  endfacet
  facet normal 0 0 -1
    outer loop
      vertex 4.17835 -15.385 -3
      vertex 4.35427 -14.3541 -3
      vertex 4.94427 -15.2169 -3
    endloop
  endfacet
  facet normal 0 0 -1
    outer loop
      vertex 3.39437 -15.4003 -3
      vertex 4.35427 -14.3541 -3
      vertex 4.17835 -15.385 -3
    endloop
  endfacet
  facet normal 0 0 -1
    outer loop
      vertex 3.39437 -15.4003 -3
      vertex 2.92635 -14.7118 -3
      vertex 4.35427 -14.3541 -3
    endloop
  endfacet
  facet normal 0 0 -1
    outer loop
      vertex 2.62244 -15.2625 -3
      vertex 2.92635 -14.7118 -3
      vertex 3.39437 -15.4003 -3
    endloop
  endfacet
  facet normal 0 0 -1
    outer loop
      vertex 1.89224 -14.9767 -3
      vertex 2.92635 -14.7118 -3
      vertex 2.62244 -15.2625 -3
    endloop
  endfacet
  facet normal 0 0 -1
    outer loop
      vertex 2.92635 -14.7118 -3
      vertex 1.89224 -14.9767 -3
      vertex 1.75079 -14.8862 -3
    endloop
  endfacet
  facet normal 0 -1 0
    outer loop
      vertex -0.0499992 -158.144 2.5
      vertex 4 -158.144 5.5
      vertex -0.0499992 -158.144 5.5
    endloop
  endfacet
  facet normal 0 -1 -0
    outer loop
      vertex 4 -158.144 5.5
      vertex -0.0499992 -158.144 2.5
      vertex 4 -158.144 2.5
    endloop
  endfacet
  facet normal -0 0 1
    outer loop
      vertex -0.0499992 -143.144 5.5
      vertex 4 -158.144 5.5
      vertex 4 -143.144 5.5
    endloop
  endfacet
  facet normal 0 0 1
    outer loop
      vertex 4 -158.144 5.5
      vertex -0.0499992 -143.144 5.5
      vertex -0.0499992 -158.144 5.5
    endloop
  endfacet
  facet normal 0 0 -1
    outer loop
      vertex -0.0499992 -158.144 2.5
      vertex 4 -143.144 2.5
      vertex 4 -158.144 2.5
    endloop
  endfacet
  facet normal -0 0 -1
    outer loop
      vertex 4 -143.144 2.5
      vertex -0.0499992 -158.144 2.5
      vertex -0.0499992 -143.144 2.5
    endloop
  endfacet
  facet normal 0 1 -0
    outer loop
      vertex 4 -143.144 2.5
      vertex -0.0499992 -143.144 5.5
      vertex 4 -143.144 5.5
    endloop
  endfacet
  facet normal 0 1 0
    outer loop
      vertex -0.0499992 -143.144 5.5
      vertex 4 -143.144 2.5
      vertex -0.0499992 -143.144 2.5
    endloop
  endfacet
  facet normal 1 -0 0
    outer loop
      vertex 4 -158.144 5.5
      vertex 4 -143.144 2.5
      vertex 4 -143.144 5.5
    endloop
  endfacet
  facet normal 1 0 0
    outer loop
      vertex 4 -143.144 2.5
      vertex 4 -158.144 5.5
      vertex 4 -158.144 2.5
    endloop
  endfacet
  facet normal 0.951061 -0.309004 0
    outer loop
      vertex 149.168 -52.6733 5.5
      vertex 151.64 -45.0649 2.5
      vertex 151.64 -45.0649 5.5
    endloop
  endfacet
  facet normal 0.951061 -0.309004 0
    outer loop
      vertex 151.64 -45.0649 2.5
      vertex 149.168 -52.6733 5.5
      vertex 149.168 -52.6733 2.5
    endloop
  endfacet
  facet normal 0 0 1
    outer loop
      vertex 137.374 -40.4296 5.5
      vertex 149.168 -52.6733 5.5
      vertex 151.64 -45.0649 5.5
    endloop
  endfacet
  facet normal 0 0 1
    outer loop
      vertex 149.168 -52.6733 5.5
      vertex 137.374 -40.4296 5.5
      vertex 134.902 -48.0381 5.5
    endloop
  endfacet
  facet normal 0 0 -1
    outer loop
      vertex 149.168 -52.6733 2.5
      vertex 137.374 -40.4296 2.5
      vertex 151.64 -45.0649 2.5
    endloop
  endfacet
  facet normal 0 -0 -1
    outer loop
      vertex 137.374 -40.4296 2.5
      vertex 149.168 -52.6733 2.5
      vertex 134.902 -48.0381 2.5
    endloop
  endfacet
  facet normal -0.951062 0.309 0
    outer loop
      vertex 134.902 -48.0381 2.5
      vertex 137.374 -40.4296 5.5
      vertex 137.374 -40.4296 2.5
    endloop
  endfacet
  facet normal -0.951062 0.309 0
    outer loop
      vertex 137.374 -40.4296 5.5
      vertex 134.902 -48.0381 2.5
      vertex 134.902 -48.0381 5.5
    endloop
  endfacet
  facet normal 0.309017 0.951057 -0
    outer loop
      vertex 151.64 -45.0649 2.5
      vertex 137.374 -40.4296 5.5
      vertex 151.64 -45.0649 5.5
    endloop
  endfacet
  facet normal 0.309017 0.951057 0
    outer loop
      vertex 137.374 -40.4296 5.5
      vertex 151.64 -45.0649 2.5
      vertex 137.374 -40.4296 2.5
    endloop
  endfacet
  facet normal -0.309011 -0.951059 0
    outer loop
      vertex 134.902 -48.0381 2.5
      vertex 149.168 -52.6733 5.5
      vertex 134.902 -48.0381 5.5
    endloop
  endfacet
  facet normal -0.309011 -0.951059 -0
    outer loop
      vertex 149.168 -52.6733 5.5
      vertex 134.902 -48.0381 2.5
      vertex 149.168 -52.6733 2.5
    endloop
  endfacet
  facet normal 0 0 1
    outer loop
      vertex 89.7185 130.292 5.5
      vertex 87.3738 113.455 5.5
      vertex 96.1906 125.59 5.5
    endloop
  endfacet
  facet normal 0 -0 1
    outer loop
      vertex 87.3738 113.455 5.5
      vertex 89.7185 130.292 5.5
      vertex 80.9017 118.157 5.5
    endloop
  endfacet
  facet normal 0.587764 0.809032 -0
    outer loop
      vertex 96.1906 125.59 2.5
      vertex 89.7185 130.292 5.5
      vertex 96.1906 125.59 5.5
    endloop
  endfacet
  facet normal 0.587764 0.809032 0
    outer loop
      vertex 89.7185 130.292 5.5
      vertex 96.1906 125.59 2.5
      vertex 89.7185 130.292 2.5
    endloop
  endfacet
  facet normal -0.587764 -0.809032 0
    outer loop
      vertex 80.9017 118.157 2.5
      vertex 87.3738 113.455 5.5
      vertex 80.9017 118.157 5.5
    endloop
  endfacet
  facet normal -0.587764 -0.809032 -0
    outer loop
      vertex 87.3738 113.455 5.5
      vertex 80.9017 118.157 2.5
      vertex 87.3738 113.455 2.5
    endloop
  endfacet
  facet normal -0.80901 0.587794 0
    outer loop
      vertex 80.9017 118.157 2.5
      vertex 89.7185 130.292 5.5
      vertex 89.7185 130.292 2.5
    endloop
  endfacet
  facet normal -0.80901 0.587794 0
    outer loop
      vertex 89.7185 130.292 5.5
      vertex 80.9017 118.157 2.5
      vertex 80.9017 118.157 5.5
    endloop
  endfacet
  facet normal 0 0 -1
    outer loop
      vertex 87.3738 113.455 2.5
      vertex 89.7185 130.292 2.5
      vertex 96.1906 125.59 2.5
    endloop
  endfacet
  facet normal 0 0 -1
    outer loop
      vertex 89.7185 130.292 2.5
      vertex 87.3738 113.455 2.5
      vertex 80.9017 118.157 2.5
    endloop
  endfacet
  facet normal 0.80901 -0.587794 0
    outer loop
      vertex 87.3738 113.455 5.5
      vertex 96.1906 125.59 2.5
      vertex 96.1906 125.59 5.5
    endloop
  endfacet
  facet normal 0.80901 -0.587794 0
    outer loop
      vertex 96.1906 125.59 2.5
      vertex 87.3738 113.455 5.5
      vertex 87.3738 113.455 2.5
    endloop
  endfacet
  facet normal -0.584311 0.81153 0
    outer loop
      vertex 0 176.935 0
      vertex -0.0499992 176.899 8
      vertex 0 176.935 8
    endloop
  endfacet
  facet normal -0.584311 0.81153 0
    outer loop
      vertex -0.0499992 176.899 8
      vertex 0 176.935 0
      vertex -0.0499992 176.899 0
    endloop
  endfacet
  facet normal 0.951056 -0.309019 0
    outer loop
      vertex 104 -143.144 8
      vertex 168.276 54.676 0
      vertex 168.276 54.676 8
    endloop
  endfacet
  facet normal 0.951056 -0.309019 0
    outer loop
      vertex 168.276 54.676 0
      vertex 104 -143.144 8
      vertex 104 -143.144 0
    endloop
  endfacet
  facet normal 0.587783 0.809019 -0
    outer loop
      vertex 168.276 54.676 0
      vertex 0 176.935 8
      vertex 168.276 54.676 8
    endloop
  endfacet
  facet normal 0.587783 0.809019 0
    outer loop
      vertex 0 176.935 8
      vertex 168.276 54.676 0
      vertex 0 176.935 0
    endloop
  endfacet
  facet normal 0 -1 0
    outer loop
      vertex -0.0499992 -143.144 0
      vertex 104 -143.144 8
      vertex -0.0499992 -143.144 8
    endloop
  endfacet
  facet normal 0 -1 -0
    outer loop
      vertex 104 -143.144 8
      vertex -0.0499992 -143.144 0
      vertex 104 -143.144 0
    endloop
  endfacet
  facet normal 0 0 -1
    outer loop
      vertex 168.276 54.676 0
      vertex 15.9231 -0.780361 0
      vertex 16 0 0
    endloop
  endfacet
  facet normal 0 0 -1
    outer loop
      vertex 168.276 54.676 0
      vertex 15.6955 -1.53073 0
      vertex 15.9231 -0.780361 0
    endloop
  endfacet
  facet normal 0 0 -1
    outer loop
      vertex 13.8582 -5.74025 0
      vertex 15.6955 -1.53073 0
      vertex 104 -143.144 0
    endloop
  endfacet
  facet normal 0 0 -1
    outer loop
      vertex 15.6955 -1.53073 0
      vertex 13.8582 -5.74025 0
      vertex 15.3259 -2.22228 0
    endloop
  endfacet
  facet normal 0 0 -1
    outer loop
      vertex 15.3259 -2.22228 0
      vertex 14.3541 -4.35427 0
      vertex 14.8284 -2.82843 0
    endloop
  endfacet
  facet normal 0 0 -1
    outer loop
      vertex 14.8284 -2.82843 0
      vertex 14.7118 -2.92635 0
      vertex 14.7121 -2.92385 0
    endloop
  endfacet
  facet normal 0 0 -1
    outer loop
      vertex 14.8284 -2.82843 0
      vertex 14.3541 -4.35427 0
      vertex 14.7118 -2.92635 0
    endloop
  endfacet
  facet normal 0 0 -1
    outer loop
      vertex 15.3259 -2.22228 0
      vertex 13.8582 -5.74025 0
      vertex 14.3541 -4.35427 0
    endloop
  endfacet
  facet normal 0 0 -1
    outer loop
      vertex 104 -143.144 0
      vertex 13.2288 -7.07095 0
      vertex 13.8582 -5.74025 0
    endloop
  endfacet
  facet normal 0 0 -1
    outer loop
      vertex 104 -143.144 0
      vertex 12.472 -8.33355 0
      vertex 13.2288 -7.07095 0
    endloop
  endfacet
  facet normal 0 0 -1
    outer loop
      vertex 104 -143.144 0
      vertex 11.5952 -9.5159 0
      vertex 12.472 -8.33355 0
    endloop
  endfacet
  facet normal 0 0 -1
    outer loop
      vertex 104 -143.144 0
      vertex 10.6066 -10.6066 0
      vertex 11.5952 -9.5159 0
    endloop
  endfacet
  facet normal 0 0 -1
    outer loop
      vertex 104 -143.144 0
      vertex 9.5159 -11.5952 0
      vertex 10.6066 -10.6066 0
    endloop
  endfacet
  facet normal 0 0 -1
    outer loop
      vertex 6.306 -14.4543 0
      vertex 9.5159 -11.5952 0
      vertex 104 -143.144 0
    endloop
  endfacet
  facet normal 0 -0 -1
    outer loop
      vertex 6.84947 -13.8891 0
      vertex 9.5159 -11.5952 0
      vertex 6.306 -14.4543 0
    endloop
  endfacet
  facet normal 0 0 -1
    outer loop
      vertex 8.33355 -12.472 0
      vertex 7.27223 -13.2286 0
      vertex 7.33383 -13.0713 0
    endloop
  endfacet
  facet normal 0 0 -1
    outer loop
      vertex 8.33355 -12.472 0
      vertex 6.84947 -13.8891 0
      vertex 7.27223 -13.2286 0
    endloop
  endfacet
  facet normal 0 0 -1
    outer loop
      vertex 9.5159 -11.5952 0
      vertex 6.84947 -13.8891 0
      vertex 8.33355 -12.472 0
    endloop
  endfacet
  facet normal 0 0 -1
    outer loop
      vertex 104 -143.144 0
      vertex 5.66269 -14.9027 0
      vertex 6.306 -14.4543 0
    endloop
  endfacet
  facet normal 0 0 -1
    outer loop
      vertex -0.0499992 -143.144 0
      vertex 5.66269 -14.9027 0
      vertex 104 -143.144 0
    endloop
  endfacet
  facet normal 0 0 -1
    outer loop
      vertex 5.66269 -14.9027 0
      vertex -0.0499992 -143.144 0
      vertex 4.94427 -15.2169 0
    endloop
  endfacet
  facet normal 0 0 -1
    outer loop
      vertex 4.94427 -15.2169 0
      vertex -0.0499992 -143.144 0
      vertex 4.17835 -15.385 0
    endloop
  endfacet
  facet normal 0 0 -1
    outer loop
      vertex 4.17835 -15.385 0
      vertex -0.0499992 -143.144 0
      vertex 3.39437 -15.4003 0
    endloop
  endfacet
  facet normal 0 0 -1
    outer loop
      vertex -0.0499992 -14.9975 0
      vertex 3.39437 -15.4003 0
      vertex -0.0499992 -143.144 0
    endloop
  endfacet
  facet normal 0 0 -1
    outer loop
      vertex 3.39437 -15.4003 0
      vertex -0.0499992 -14.9975 0
      vertex 2.62244 -15.2625 0
    endloop
  endfacet
  facet normal 0 -0 -1
    outer loop
      vertex 1.47026 -14.9278 0
      vertex 2.62244 -15.2625 0
      vertex 0 -15 0
    endloop
  endfacet
  facet normal 0 0 -1
    outer loop
      vertex 1.89224 -14.9767 0
      vertex 1.47026 -14.9278 0
      vertex 1.75079 -14.8862 0
    endloop
  endfacet
  facet normal 0 0 -1
    outer loop
      vertex 2.62244 -15.2625 0
      vertex 1.47026 -14.9278 0
      vertex 1.89224 -14.9767 0
    endloop
  endfacet
  facet normal 0 0 -1
    outer loop
      vertex 2.62244 -15.2625 0
      vertex -0.0499992 -14.9975 0
      vertex 0 -15 0
    endloop
  endfacet
  facet normal 0 0 -1
    outer loop
      vertex 15.6955 -1.53073 0
      vertex 168.276 54.676 0
      vertex 104 -143.144 0
    endloop
  endfacet
  facet normal 0 0 -1
    outer loop
      vertex 15.9231 0.780361 0
      vertex 168.276 54.676 0
      vertex 16 0 0
    endloop
  endfacet
  facet normal 0 0 -1
    outer loop
      vertex 15.6955 1.53073 0
      vertex 168.276 54.676 0
      vertex 15.9231 0.780361 0
    endloop
  endfacet
  facet normal 0 0 -1
    outer loop
      vertex 13.8582 5.74025 0
      vertex 15.6955 1.53073 0
      vertex 15.3259 2.22228 0
    endloop
  endfacet
  facet normal 0 0 -1
    outer loop
      vertex 14.3541 4.35427 0
      vertex 15.3259 2.22228 0
      vertex 14.8284 2.82843 0
    endloop
  endfacet
  facet normal 0 0 -1
    outer loop
      vertex 14.7118 2.92635 0
      vertex 14.8284 2.82843 0
      vertex 14.7121 2.92385 0
    endloop
  endfacet
  facet normal 0 0 -1
    outer loop
      vertex 14.3541 4.35427 0
      vertex 14.8284 2.82843 0
      vertex 14.7118 2.92635 0
    endloop
  endfacet
  facet normal 0 0 -1
    outer loop
      vertex 13.8582 5.74025 0
      vertex 15.3259 2.22228 0
      vertex 14.3541 4.35427 0
    endloop
  endfacet
  facet normal 0 0 -1
    outer loop
      vertex 15.6955 1.53073 0
      vertex 13.8582 5.74025 0
      vertex 168.276 54.676 0
    endloop
  endfacet
  facet normal 0 0 -1
    outer loop
      vertex 13.2288 7.07095 0
      vertex 168.276 54.676 0
      vertex 13.8582 5.74025 0
    endloop
  endfacet
  facet normal 0 0 -1
    outer loop
      vertex 12.472 8.33355 0
      vertex 168.276 54.676 0
      vertex 13.2288 7.07095 0
    endloop
  endfacet
  facet normal 0 0 -1
    outer loop
      vertex 11.5952 9.5159 0
      vertex 168.276 54.676 0
      vertex 12.472 8.33355 0
    endloop
  endfacet
  facet normal 0 0 -1
    outer loop
      vertex 10.6066 10.6066 0
      vertex 168.276 54.676 0
      vertex 11.5952 9.5159 0
    endloop
  endfacet
  facet normal 0 0 -1
    outer loop
      vertex 9.5159 11.5952 0
      vertex 168.276 54.676 0
      vertex 10.6066 10.6066 0
    endloop
  endfacet
  facet normal 0 0 -1
    outer loop
      vertex 6.84947 13.8891 0
      vertex 9.5159 11.5952 0
      vertex 8.33355 12.472 0
    endloop
  endfacet
  facet normal 0 0 -1
    outer loop
      vertex 7.27223 13.2286 0
      vertex 8.33355 12.472 0
      vertex 7.33383 13.0713 0
    endloop
  endfacet
  facet normal 0 0 -1
    outer loop
      vertex 6.84947 13.8891 0
      vertex 8.33355 12.472 0
      vertex 7.27223 13.2286 0
    endloop
  endfacet
  facet normal 0 0 -1
    outer loop
      vertex 9.5159 11.5952 0
      vertex 6.84947 13.8891 0
      vertex 6.306 14.4543 0
    endloop
  endfacet
  facet normal 0 0 -1
    outer loop
      vertex 9.5159 11.5952 0
      vertex 6.306 14.4543 0
      vertex 168.276 54.676 0
    endloop
  endfacet
  facet normal 0 0 -1
    outer loop
      vertex 0 176.935 0
      vertex 6.306 14.4543 0
      vertex 5.66269 14.9027 0
    endloop
  endfacet
  facet normal 0 0 -1
    outer loop
      vertex -0.0499992 176.899 0
      vertex 5.66269 14.9027 0
      vertex 4.94427 15.2169 0
    endloop
  endfacet
  facet normal 0 0 -1
    outer loop
      vertex -0.0499992 176.899 0
      vertex 4.94427 15.2169 0
      vertex 4.17835 15.385 0
    endloop
  endfacet
  facet normal 0 0 -1
    outer loop
      vertex -0.0499992 176.899 0
      vertex 4.17835 15.385 0
      vertex 3.39437 15.4003 0
    endloop
  endfacet
  facet normal 0 0 -1
    outer loop
      vertex -0.0499992 14.9975 0
      vertex 3.39437 15.4003 0
      vertex 2.62244 15.2625 0
    endloop
  endfacet
  facet normal 0 0 -1
    outer loop
      vertex 1.47026 14.9278 0
      vertex 1.89224 14.9767 0
      vertex 1.75079 14.8862 0
    endloop
  endfacet
  facet normal 0 0 -1
    outer loop
      vertex 1.47026 14.9278 0
      vertex 2.62244 15.2625 0
      vertex 1.89224 14.9767 0
    endloop
  endfacet
  facet normal 0 0 -1
    outer loop
      vertex 0 15 0
      vertex 2.62244 15.2625 0
      vertex 1.47026 14.9278 0
    endloop
  endfacet
  facet normal 0 0 -1
    outer loop
      vertex -0.0499992 14.9975 0
      vertex 2.62244 15.2625 0
      vertex 0 15 0
    endloop
  endfacet
  facet normal 0 0 -1
    outer loop
      vertex 6.306 14.4543 0
      vertex 0 176.935 0
      vertex 168.276 54.676 0
    endloop
  endfacet
  facet normal -0 0 -1
    outer loop
      vertex 3.39437 15.4003 0
      vertex -0.0499992 14.9975 0
      vertex -0.0499992 176.899 0
    endloop
  endfacet
  facet normal 0 0 -1
    outer loop
      vertex 5.66269 14.9027 0
      vertex -0.0499992 176.899 0
      vertex 0 176.935 0
    endloop
  endfacet
  facet normal -0 0 1
    outer loop
      vertex -0.0499992 176.899 8
      vertex 168.276 54.676 8
      vertex 0 176.935 8
    endloop
  endfacet
  facet normal 0 0 1
    outer loop
      vertex -0.0499992 -143.144 8
      vertex 168.276 54.676 8
      vertex -0.0499992 176.899 8
    endloop
  endfacet
  facet normal 0 0 1
    outer loop
      vertex 168.276 54.676 8
      vertex -0.0499992 -143.144 8
      vertex 104 -143.144 8
    endloop
  endfacet
  facet normal 0.740935 0.671577 0
    outer loop
      vertex 11.5952 9.5159 0
      vertex 10.6066 10.6066 -6
      vertex 10.6066 10.6066 0
    endloop
  endfacet
  facet normal 0.740935 0.671577 0
    outer loop
      vertex 10.6066 10.6066 -6
      vertex 11.5952 9.5159 0
      vertex 11.5952 9.5159 -6
    endloop
  endfacet
  facet normal 0.992877 0.119145 -0
    outer loop
      vertex 14.7121 2.92385 -3
      vertex 14.7118 2.92635 0
      vertex 14.7121 2.92385 0
    endloop
  endfacet
  facet normal 0.992877 0.119145 0
    outer loop
      vertex 14.7118 2.92635 0
      vertex 14.7121 2.92385 -3
      vertex 14.7118 2.92635 -6
    endloop
  endfacet
  facet normal 0.989169 0.146784 2.34031e-05
    outer loop
      vertex 14.9278 1.47026 -3
      vertex 14.7118 2.92635 -6
      vertex 14.7121 2.92385 -3
    endloop
  endfacet
  facet normal 0.989176 0.146737 0
    outer loop
      vertex 14.7118 2.92635 -6
      vertex 14.9278 1.47026 -3
      vertex 14.9278 1.47026 -6
    endloop
  endfacet
  facet normal 0.998796 0.0490479 0
    outer loop
      vertex 15 0 -3
      vertex 14.9278 1.47026 -6
      vertex 14.9278 1.47026 -3
    endloop
  endfacet
  facet normal 0.998796 0.0490479 0
    outer loop
      vertex 14.9278 1.47026 -6
      vertex 15 0 -3
      vertex 15 0 -6
    endloop
  endfacet
  facet normal 0.970027 0.242996 0
    outer loop
      vertex 14.7118 2.92635 0
      vertex 14.3541 4.35427 -6
      vertex 14.3541 4.35427 0
    endloop
  endfacet
  facet normal 0.970027 0.242996 0
    outer loop
      vertex 14.3541 4.35427 -6
      vertex 14.7118 2.92635 0
      vertex 14.7118 2.92635 -6
    endloop
  endfacet
  facet normal 0.336883 -0.941547 0
    outer loop
      vertex 4.35427 -14.3541 -6
      vertex 5.74025 -13.8582 -3
      vertex 4.35427 -14.3541 -3
    endloop
  endfacet
  facet normal 0.336883 -0.941547 0
    outer loop
      vertex 5.74025 -13.8582 -3
      vertex 4.35427 -14.3541 -6
      vertex 5.74025 -13.8582 -6
    endloop
  endfacet
  facet normal 0.857721 0.514116 0
    outer loop
      vertex 13.2288 7.07095 0
      vertex 12.472 8.33355 -6
      vertex 12.472 8.33355 0
    endloop
  endfacet
  facet normal 0.857721 0.514116 0
    outer loop
      vertex 12.472 8.33355 -6
      vertex 13.2288 7.07095 0
      vertex 13.2288 7.07095 -6
    endloop
  endfacet
  facet normal 0.941547 0.336883 0
    outer loop
      vertex 14.3541 4.35427 0
      vertex 13.8582 5.74025 -6
      vertex 13.8582 5.74025 0
    endloop
  endfacet
  facet normal 0.941547 0.336883 0
    outer loop
      vertex 13.8582 5.74025 -6
      vertex 14.3541 4.35427 0
      vertex 14.3541 4.35427 -6
    endloop
  endfacet
  facet normal 0.242996 0.970027 -0
    outer loop
      vertex 4.35427 14.3541 -6
      vertex 2.92635 14.7118 -3
      vertex 4.35427 14.3541 -3
    endloop
  endfacet
  facet normal 0.242996 0.970027 0
    outer loop
      vertex 2.92635 14.7118 -3
      vertex 4.35427 14.3541 -6
      vertex 2.92635 14.7118 -6
    endloop
  endfacet
  facet normal 0.0490479 -0.998796 0
    outer loop
      vertex 0 -15 -6
      vertex 1.47026 -14.9278 0
      vertex 0 -15 0
    endloop
  endfacet
  facet normal 0.0490479 -0.998796 0
    outer loop
      vertex 1.47026 -14.9278 0
      vertex 0 -15 -6
      vertex 1.47026 -14.9278 -6
    endloop
  endfacet
  facet normal 0.427569 0.903983 -0
    outer loop
      vertex 7.07095 13.2288 -6
      vertex 5.74025 13.8582 -3
      vertex 7.07095 13.2288 -3
    endloop
  endfacet
  facet normal 0.427569 0.903983 0
    outer loop
      vertex 5.74025 13.8582 -3
      vertex 7.07095 13.2288 -6
      vertex 5.74025 13.8582 -6
    endloop
  endfacet
  facet normal 0.671577 0.740935 -0
    outer loop
      vertex 10.6066 10.6066 -6
      vertex 9.5159 11.5952 0
      vertex 10.6066 10.6066 0
    endloop
  endfacet
  facet normal 0.671577 0.740935 0
    outer loop
      vertex 9.5159 11.5952 0
      vertex 10.6066 10.6066 -6
      vertex 9.5159 11.5952 -6
    endloop
  endfacet
  facet normal 0.242996 -0.970027 0
    outer loop
      vertex 2.92635 -14.7118 -6
      vertex 4.35427 -14.3541 -3
      vertex 2.92635 -14.7118 -3
    endloop
  endfacet
  facet normal 0.242996 -0.970027 0
    outer loop
      vertex 4.35427 -14.3541 -3
      vertex 2.92635 -14.7118 -6
      vertex 4.35427 -14.3541 -6
    endloop
  endfacet
  facet normal 0.992877 -0.119145 0
    outer loop
      vertex 14.7121 -2.92385 0
      vertex 14.7118 -2.92635 0
      vertex 14.7121 -2.92385 -3
    endloop
  endfacet
  facet normal 0.989169 -0.146784 0
    outer loop
      vertex 14.7121 -2.92385 -3
      vertex 14.9278 -1.47026 -6
      vertex 14.9278 -1.47026 -3
    endloop
  endfacet
  facet normal 0.989176 -0.146737 2.33631e-05
    outer loop
      vertex 14.7121 -2.92385 -3
      vertex 14.7118 -2.92635 -6
      vertex 14.9278 -1.47026 -6
    endloop
  endfacet
  facet normal 0.992877 -0.119145 0
    outer loop
      vertex 14.7118 -2.92635 -6
      vertex 14.7121 -2.92385 -3
      vertex 14.7118 -2.92635 0
    endloop
  endfacet
  facet normal 0.513949 -0.857821 0
    outer loop
      vertex 7.07095 -13.2288 -3
      vertex 7.07095 -13.2288 -6
      vertex 7.33383 -13.0713 -3
    endloop
  endfacet
  facet normal 0.51416 -0.857694 0
    outer loop
      vertex 7.33383 -13.0713 -3
      vertex 8.33355 -12.472 0
      vertex 7.33383 -13.0713 0
    endloop
  endfacet
  facet normal 0.514116 -0.857721 -1.9946e-05
    outer loop
      vertex 8.33355 -12.472 -6
      vertex 7.33383 -13.0713 -3
      vertex 7.07095 -13.2288 -6
    endloop
  endfacet
  facet normal 0.51416 -0.857694 0
    outer loop
      vertex 7.33383 -13.0713 -3
      vertex 8.33355 -12.472 -6
      vertex 8.33355 -12.472 0
    endloop
  endfacet
  facet normal 0.970027 -0.242996 0
    outer loop
      vertex 14.3541 -4.35427 0
      vertex 14.7118 -2.92635 -6
      vertex 14.7118 -2.92635 0
    endloop
  endfacet
  facet normal 0.970027 -0.242996 0
    outer loop
      vertex 14.7118 -2.92635 -6
      vertex 14.3541 -4.35427 0
      vertex 14.3541 -4.35427 -6
    endloop
  endfacet
  facet normal 0.59566 0.803237 -0
    outer loop
      vertex 9.5159 11.5952 -6
      vertex 8.33355 12.472 0
      vertex 9.5159 11.5952 0
    endloop
  endfacet
  facet normal 0.59566 0.803237 0
    outer loop
      vertex 8.33355 12.472 0
      vertex 9.5159 11.5952 -6
      vertex 8.33355 12.472 -6
    endloop
  endfacet
  facet normal 0.941547 -0.336883 0
    outer loop
      vertex 13.8582 -5.74025 0
      vertex 14.3541 -4.35427 -6
      vertex 14.3541 -4.35427 0
    endloop
  endfacet
  facet normal 0.941547 -0.336883 0
    outer loop
      vertex 14.3541 -4.35427 -6
      vertex 13.8582 -5.74025 0
      vertex 13.8582 -5.74025 -6
    endloop
  endfacet
  facet normal 0.146749 0.989174 0
    outer loop
      vertex 2.92635 14.7118 -3
      vertex 2.92635 14.7118 -6
      vertex 1.75079 14.8862 -3
    endloop
  endfacet
  facet normal 0.146687 0.989183 -0
    outer loop
      vertex 1.75079 14.8862 -3
      vertex 1.47026 14.9278 0
      vertex 1.75079 14.8862 0
    endloop
  endfacet
  facet normal 0.146687 0.989183 0
    outer loop
      vertex 1.75079 14.8862 -3
      vertex 1.47026 14.9278 -6
      vertex 1.47026 14.9278 0
    endloop
  endfacet
  facet normal 0.146737 0.989176 -4.78615e-06
    outer loop
      vertex 1.47026 14.9278 -6
      vertex 1.75079 14.8862 -3
      vertex 2.92635 14.7118 -6
    endloop
  endfacet
  facet normal 0.51416 0.857694 0
    outer loop
      vertex 8.33355 12.472 0
      vertex 7.33383 13.0713 -3
      vertex 7.33383 13.0713 0
    endloop
  endfacet
  facet normal 0.51416 0.857694 -0
    outer loop
      vertex 8.33355 12.472 -6
      vertex 7.33383 13.0713 -3
      vertex 8.33355 12.472 0
    endloop
  endfacet
  facet normal 0.514116 0.857721 -1.9946e-05
    outer loop
      vertex 7.07095 13.2288 -6
      vertex 7.33383 13.0713 -3
      vertex 8.33355 12.472 -6
    endloop
  endfacet
  facet normal 0.513949 0.857821 0
    outer loop
      vertex 7.33383 13.0713 -3
      vertex 7.07095 13.2288 -6
      vertex 7.07095 13.2288 -3
    endloop
  endfacet
  facet normal 0.427569 -0.903983 0
    outer loop
      vertex 5.74025 -13.8582 -6
      vertex 7.07095 -13.2288 -3
      vertex 5.74025 -13.8582 -3
    endloop
  endfacet
  facet normal 0.427569 -0.903983 0
    outer loop
      vertex 7.07095 -13.2288 -3
      vertex 5.74025 -13.8582 -6
      vertex 7.07095 -13.2288 -6
    endloop
  endfacet
  facet normal 0.857721 -0.514116 0
    outer loop
      vertex 12.472 -8.33355 0
      vertex 13.2288 -7.07095 -6
      vertex 13.2288 -7.07095 0
    endloop
  endfacet
  facet normal 0.857721 -0.514116 0
    outer loop
      vertex 13.2288 -7.07095 -6
      vertex 12.472 -8.33355 0
      vertex 12.472 -8.33355 -6
    endloop
  endfacet
  facet normal 0.903983 -0.427569 0
    outer loop
      vertex 13.2288 -7.07095 0
      vertex 13.8582 -5.74025 -6
      vertex 13.8582 -5.74025 0
    endloop
  endfacet
  facet normal 0.903983 -0.427569 0
    outer loop
      vertex 13.8582 -5.74025 -6
      vertex 13.2288 -7.07095 0
      vertex 13.2288 -7.07095 -6
    endloop
  endfacet
  facet normal 0.998796 -0.0490479 0
    outer loop
      vertex 14.9278 -1.47026 -3
      vertex 15 0 -6
      vertex 15 0 -3
    endloop
  endfacet
  facet normal 0.998796 -0.0490479 0
    outer loop
      vertex 15 0 -6
      vertex 14.9278 -1.47026 -3
      vertex 14.9278 -1.47026 -6
    endloop
  endfacet
  facet normal 0.146687 -0.989183 0
    outer loop
      vertex 1.47026 -14.9278 0
      vertex 1.75079 -14.8862 -3
      vertex 1.75079 -14.8862 0
    endloop
  endfacet
  facet normal 0.146687 -0.989183 0
    outer loop
      vertex 1.47026 -14.9278 -6
      vertex 1.75079 -14.8862 -3
      vertex 1.47026 -14.9278 0
    endloop
  endfacet
  facet normal 0.146737 -0.989176 -4.78615e-06
    outer loop
      vertex 2.92635 -14.7118 -6
      vertex 1.75079 -14.8862 -3
      vertex 1.47026 -14.9278 -6
    endloop
  endfacet
  facet normal 0.146749 -0.989174 0
    outer loop
      vertex 1.75079 -14.8862 -3
      vertex 2.92635 -14.7118 -6
      vertex 2.92635 -14.7118 -3
    endloop
  endfacet
  facet normal 0.740935 -0.671577 0
    outer loop
      vertex 10.6066 -10.6066 0
      vertex 11.5952 -9.5159 -6
      vertex 11.5952 -9.5159 0
    endloop
  endfacet
  facet normal 0.740935 -0.671577 0
    outer loop
      vertex 11.5952 -9.5159 -6
      vertex 10.6066 -10.6066 0
      vertex 10.6066 -10.6066 -6
    endloop
  endfacet
  facet normal 0.803237 -0.59566 0
    outer loop
      vertex 11.5952 -9.5159 0
      vertex 12.472 -8.33355 -6
      vertex 12.472 -8.33355 0
    endloop
  endfacet
  facet normal 0.803237 -0.59566 0
    outer loop
      vertex 12.472 -8.33355 -6
      vertex 11.5952 -9.5159 0
      vertex 11.5952 -9.5159 -6
    endloop
  endfacet
  facet normal 0.803237 0.59566 0
    outer loop
      vertex 12.472 8.33355 0
      vertex 11.5952 9.5159 -6
      vertex 11.5952 9.5159 0
    endloop
  endfacet
  facet normal 0.803237 0.59566 0
    outer loop
      vertex 11.5952 9.5159 -6
      vertex 12.472 8.33355 0
      vertex 12.472 8.33355 -6
    endloop
  endfacet
  facet normal 0.0490479 0.998796 -0
    outer loop
      vertex 1.47026 14.9278 -6
      vertex 0 15 0
      vertex 1.47026 14.9278 0
    endloop
  endfacet
  facet normal 0.0490479 0.998796 0
    outer loop
      vertex 0 15 0
      vertex 1.47026 14.9278 -6
      vertex 0 15 -6
    endloop
  endfacet
  facet normal 0.903983 0.427569 0
    outer loop
      vertex 13.8582 5.74025 0
      vertex 13.2288 7.07095 -6
      vertex 13.2288 7.07095 0
    endloop
  endfacet
  facet normal 0.903983 0.427569 0
    outer loop
      vertex 13.2288 7.07095 -6
      vertex 13.8582 5.74025 0
      vertex 13.8582 5.74025 -6
    endloop
  endfacet
  facet normal 0.59566 -0.803237 0
    outer loop
      vertex 8.33355 -12.472 -6
      vertex 9.5159 -11.5952 0
      vertex 8.33355 -12.472 0
    endloop
  endfacet
  facet normal 0.59566 -0.803237 0
    outer loop
      vertex 9.5159 -11.5952 0
      vertex 8.33355 -12.472 -6
      vertex 9.5159 -11.5952 -6
    endloop
  endfacet
  facet normal -0.0499384 0.998752 0
    outer loop
      vertex 0 15 -6
      vertex -0.0499992 14.9975 0
      vertex 0 15 0
    endloop
  endfacet
  facet normal -0.0499384 0.998752 0
    outer loop
      vertex -0.0499992 14.9975 0
      vertex 0 15 -6
      vertex -0.0499992 14.9975 -6
    endloop
  endfacet
  facet normal 0.336883 0.941547 -0
    outer loop
      vertex 5.74025 13.8582 -6
      vertex 4.35427 14.3541 -3
      vertex 5.74025 13.8582 -3
    endloop
  endfacet
  facet normal 0.336883 0.941547 0
    outer loop
      vertex 4.35427 14.3541 -3
      vertex 5.74025 13.8582 -6
      vertex 4.35427 14.3541 -6
    endloop
  endfacet
  facet normal 0 0 -1
    outer loop
      vertex 14.9278 -1.47026 -6
      vertex 14.9278 1.47026 -6
      vertex 15 0 -6
    endloop
  endfacet
  facet normal 0 0 -1
    outer loop
      vertex 14.7118 -2.92635 -6
      vertex 14.9278 1.47026 -6
      vertex 14.9278 -1.47026 -6
    endloop
  endfacet
  facet normal 0 0 -1
    outer loop
      vertex 14.7118 -2.92635 -6
      vertex 14.7118 2.92635 -6
      vertex 14.9278 1.47026 -6
    endloop
  endfacet
  facet normal 0 0 -1
    outer loop
      vertex 14.3541 -4.35427 -6
      vertex 14.7118 2.92635 -6
      vertex 14.7118 -2.92635 -6
    endloop
  endfacet
  facet normal 0 0 -1
    outer loop
      vertex 14.3541 -4.35427 -6
      vertex 14.3541 4.35427 -6
      vertex 14.7118 2.92635 -6
    endloop
  endfacet
  facet normal 0 0 -1
    outer loop
      vertex 13.8582 -5.74025 -6
      vertex 14.3541 4.35427 -6
      vertex 14.3541 -4.35427 -6
    endloop
  endfacet
  facet normal 0 0 -1
    outer loop
      vertex 13.8582 -5.74025 -6
      vertex 13.8582 5.74025 -6
      vertex 14.3541 4.35427 -6
    endloop
  endfacet
  facet normal 0 0 -1
    outer loop
      vertex 13.2288 -7.07095 -6
      vertex 13.8582 5.74025 -6
      vertex 13.8582 -5.74025 -6
    endloop
  endfacet
  facet normal 0 0 -1
    outer loop
      vertex 13.2288 -7.07095 -6
      vertex 13.2288 7.07095 -6
      vertex 13.8582 5.74025 -6
    endloop
  endfacet
  facet normal 0 0 -1
    outer loop
      vertex 12.472 -8.33355 -6
      vertex 13.2288 7.07095 -6
      vertex 13.2288 -7.07095 -6
    endloop
  endfacet
  facet normal 0 0 -1
    outer loop
      vertex 12.472 -8.33355 -6
      vertex 12.472 8.33355 -6
      vertex 13.2288 7.07095 -6
    endloop
  endfacet
  facet normal 0 0 -1
    outer loop
      vertex 11.5952 -9.5159 -6
      vertex 12.472 8.33355 -6
      vertex 12.472 -8.33355 -6
    endloop
  endfacet
  facet normal 0 0 -1
    outer loop
      vertex 11.5952 -9.5159 -6
      vertex 11.5952 9.5159 -6
      vertex 12.472 8.33355 -6
    endloop
  endfacet
  facet normal 0 0 -1
    outer loop
      vertex 10.6066 -10.6066 -6
      vertex 11.5952 9.5159 -6
      vertex 11.5952 -9.5159 -6
    endloop
  endfacet
  facet normal 0 0 -1
    outer loop
      vertex 10.6066 -10.6066 -6
      vertex 10.6066 10.6066 -6
      vertex 11.5952 9.5159 -6
    endloop
  endfacet
  facet normal 0 0 -1
    outer loop
      vertex 9.5159 -11.5952 -6
      vertex 10.6066 10.6066 -6
      vertex 10.6066 -10.6066 -6
    endloop
  endfacet
  facet normal 0 0 -1
    outer loop
      vertex 9.5159 -11.5952 -6
      vertex 9.5159 11.5952 -6
      vertex 10.6066 10.6066 -6
    endloop
  endfacet
  facet normal 0 0 -1
    outer loop
      vertex 8.33355 -12.472 -6
      vertex 9.5159 11.5952 -6
      vertex 9.5159 -11.5952 -6
    endloop
  endfacet
  facet normal 0 0 -1
    outer loop
      vertex 8.33355 -12.472 -6
      vertex 8.33355 12.472 -6
      vertex 9.5159 11.5952 -6
    endloop
  endfacet
  facet normal 0 0 -1
    outer loop
      vertex 7.07095 -13.2288 -6
      vertex 8.33355 12.472 -6
      vertex 8.33355 -12.472 -6
    endloop
  endfacet
  facet normal 0 0 -1
    outer loop
      vertex 7.07095 -13.2288 -6
      vertex 7.07095 13.2288 -6
      vertex 8.33355 12.472 -6
    endloop
  endfacet
  facet normal 0 0 -1
    outer loop
      vertex 5.74025 -13.8582 -6
      vertex 7.07095 13.2288 -6
      vertex 7.07095 -13.2288 -6
    endloop
  endfacet
  facet normal 0 0 -1
    outer loop
      vertex 5.74025 -13.8582 -6
      vertex 5.74025 13.8582 -6
      vertex 7.07095 13.2288 -6
    endloop
  endfacet
  facet normal 0 0 -1
    outer loop
      vertex 4.35427 -14.3541 -6
      vertex 5.74025 13.8582 -6
      vertex 5.74025 -13.8582 -6
    endloop
  endfacet
  facet normal 0 0 -1
    outer loop
      vertex 4.35427 -14.3541 -6
      vertex 4.35427 14.3541 -6
      vertex 5.74025 13.8582 -6
    endloop
  endfacet
  facet normal 0 0 -1
    outer loop
      vertex 2.92635 -14.7118 -6
      vertex 4.35427 14.3541 -6
      vertex 4.35427 -14.3541 -6
    endloop
  endfacet
  facet normal 0 0 -1
    outer loop
      vertex 2.92635 -14.7118 -6
      vertex 2.92635 14.7118 -6
      vertex 4.35427 14.3541 -6
    endloop
  endfacet
  facet normal 0 0 -1
    outer loop
      vertex 1.47026 -14.9278 -6
      vertex 2.92635 14.7118 -6
      vertex 2.92635 -14.7118 -6
    endloop
  endfacet
  facet normal 0 0 -1
    outer loop
      vertex 1.47026 -14.9278 -6
      vertex 1.47026 14.9278 -6
      vertex 2.92635 14.7118 -6
    endloop
  endfacet
  facet normal 0 0 -1
    outer loop
      vertex -0.0499992 -14.9975 -6
      vertex 1.47026 -14.9278 -6
      vertex 0 -15 -6
    endloop
  endfacet
  facet normal -0 0 -1
    outer loop
      vertex 1.47026 -14.9278 -6
      vertex -0.0499992 -14.9975 -6
      vertex 1.47026 14.9278 -6
    endloop
  endfacet
  facet normal 0 0 -1
    outer loop
      vertex -0.0499992 14.9975 -6
      vertex 1.47026 14.9278 -6
      vertex -0.0499992 -14.9975 -6
    endloop
  endfacet
  facet normal 0 0 -1
    outer loop
      vertex 1.47026 14.9278 -6
      vertex -0.0499992 14.9975 -6
      vertex 0 15 -6
    endloop
  endfacet
  facet normal -0.0499384 -0.998752 0
    outer loop
      vertex -0.0499992 -14.9975 -6
      vertex 0 -15 0
      vertex -0.0499992 -14.9975 0
    endloop
  endfacet
  facet normal -0.0499384 -0.998752 -0
    outer loop
      vertex 0 -15 0
      vertex -0.0499992 -14.9975 -6
      vertex 0 -15 -6
    endloop
  endfacet
  facet normal 0.671577 -0.740935 0
    outer loop
      vertex 9.5159 -11.5952 -6
      vertex 10.6066 -10.6066 0
      vertex 9.5159 -11.5952 0
    endloop
  endfacet
  facet normal 0.671577 -0.740935 0
    outer loop
      vertex 10.6066 -10.6066 0
      vertex 9.5159 -11.5952 -6
      vertex 10.6066 -10.6066 -6
    endloop
  endfacet
  facet normal -1 0 0
    outer loop
      vertex -0.0499992 14.9975 -6
      vertex -0.0499992 -14.9975 -6
      vertex -0.0499992 14.9975 0
    endloop
  endfacet
  facet normal -1 0 0
    outer loop
      vertex -0.0499992 14.9975 0
      vertex -0.0499992 176.899 8
      vertex -0.0499992 176.899 0
    endloop
  endfacet
  facet normal -1 0 0
    outer loop
      vertex -0.0499992 -14.9975 0
      vertex -0.0499992 14.9975 0
      vertex -0.0499992 -14.9975 -6
    endloop
  endfacet
  facet normal -1 0 0
    outer loop
      vertex -0.0499992 -143.144 8
      vertex -0.0499992 14.9975 0
      vertex -0.0499992 -14.9975 0
    endloop
  endfacet
  facet normal -1 0 0
    outer loop
      vertex -0.0499992 -143.144 8
      vertex -0.0499992 -14.9975 0
      vertex -0.0499992 -143.144 0
    endloop
  endfacet
  facet normal -1 0 0
    outer loop
      vertex -0.0499992 14.9975 0
      vertex -0.0499992 -143.144 8
      vertex -0.0499992 176.899 8
    endloop
  endfacet
  facet normal -1 0 0
    outer loop
      vertex -0.0499992 -158.144 2.5
      vertex -0.0499992 -143.144 5.5
      vertex -0.0499992 -143.144 2.5
    endloop
  endfacet
  facet normal -1 -0 0
    outer loop
      vertex -0.0499992 -143.144 5.5
      vertex -0.0499992 -158.144 2.5
      vertex -0.0499992 -158.144 5.5
    endloop
  endfacet
endsolid OpenSCAD_Model
