solid OpenSCAD_Model
  facet normal -1 0 0
    outer loop
      vertex 38 12.5 0
      vertex 38 20 10
      vertex 38 20 0
    endloop
  endfacet
  facet normal -1 -0 0
    outer loop
      vertex 38 20 10
      vertex 38 12.5 0
      vertex 38 12.5 10
    endloop
  endfacet
  facet normal 1 -0 0
    outer loop
      vertex 30 12.5 10
      vertex 30 20 0
      vertex 30 20 10
    endloop
  endfacet
  facet normal 1 0 0
    outer loop
      vertex 30 20 0
      vertex 30 12.5 10
      vertex 30 12.5 0
    endloop
  endfacet
  facet normal 0 1 -0
    outer loop
      vertex 38 12.5 0
      vertex 30 12.5 10
      vertex 38 12.5 10
    endloop
  endfacet
  facet normal 0 1 0
    outer loop
      vertex 30 12.5 10
      vertex 38 12.5 0
      vertex 30 12.5 0
    endloop
  endfacet
  facet normal -1 0 0
    outer loop
      vertex 51 12.5 0
      vertex 51 20 10
      vertex 51 20 0
    endloop
  endfacet
  facet normal -1 -0 0
    outer loop
      vertex 51 20 10
      vertex 51 12.5 0
      vertex 51 12.5 10
    endloop
  endfacet
  facet normal 1 -0 0
    outer loop
      vertex 43 12.5 10
      vertex 43 20 0
      vertex 43 20 10
    endloop
  endfacet
  facet normal 1 0 0
    outer loop
      vertex 43 20 0
      vertex 43 12.5 10
      vertex 43 12.5 0
    endloop
  endfacet
  facet normal 0 1 -0
    outer loop
      vertex 51 12.5 0
      vertex 43 12.5 10
      vertex 51 12.5 10
    endloop
  endfacet
  facet normal 0 1 0
    outer loop
      vertex 43 12.5 10
      vertex 51 12.5 0
      vertex 43 12.5 0
    endloop
  endfacet
  facet normal -1 0 0
    outer loop
      vertex 64 12.5 0
      vertex 64 20 10
      vertex 64 20 0
    endloop
  endfacet
  facet normal -1 -0 0
    outer loop
      vertex 64 20 10
      vertex 64 12.5 0
      vertex 64 12.5 10
    endloop
  endfacet
  facet normal 1 -0 0
    outer loop
      vertex 56 12.5 10
      vertex 56 20 0
      vertex 56 20 10
    endloop
  endfacet
  facet normal 1 0 0
    outer loop
      vertex 56 20 0
      vertex 56 12.5 10
      vertex 56 12.5 0
    endloop
  endfacet
  facet normal 0 1 -0
    outer loop
      vertex 64 12.5 0
      vertex 56 12.5 10
      vertex 64 12.5 10
    endloop
  endfacet
  facet normal 0 1 0
    outer loop
      vertex 56 12.5 10
      vertex 64 12.5 0
      vertex 56 12.5 0
    endloop
  endfacet
  facet normal -1 0 0
    outer loop
      vertex 77 12.5 0
      vertex 77 20 10
      vertex 77 20 0
    endloop
  endfacet
  facet normal -1 -0 0
    outer loop
      vertex 77 20 10
      vertex 77 12.5 0
      vertex 77 12.5 10
    endloop
  endfacet
  facet normal 1 -0 0
    outer loop
      vertex 69 12.5 10
      vertex 69 20 0
      vertex 69 20 10
    endloop
  endfacet
  facet normal 1 0 0
    outer loop
      vertex 69 20 0
      vertex 69 12.5 10
      vertex 69 12.5 0
    endloop
  endfacet
  facet normal 0 1 -0
    outer loop
      vertex 77 12.5 0
      vertex 69 12.5 10
      vertex 77 12.5 10
    endloop
  endfacet
  facet normal 0 1 0
    outer loop
      vertex 69 12.5 10
      vertex 77 12.5 0
      vertex 69 12.5 0
    endloop
  endfacet
  facet normal -1 0 0
    outer loop
      vertex 90 12.5 0
      vertex 90 20 10
      vertex 90 20 0
    endloop
  endfacet
  facet normal -1 -0 0
    outer loop
      vertex 90 20 10
      vertex 90 12.5 0
      vertex 90 12.5 10
    endloop
  endfacet
  facet normal 1 -0 0
    outer loop
      vertex 82 12.5 10
      vertex 82 20 0
      vertex 82 20 10
    endloop
  endfacet
  facet normal 1 0 0
    outer loop
      vertex 82 20 0
      vertex 82 12.5 10
      vertex 82 12.5 0
    endloop
  endfacet
  facet normal 0 1 -0
    outer loop
      vertex 90 12.5 0
      vertex 82 12.5 10
      vertex 90 12.5 10
    endloop
  endfacet
  facet normal 0 1 0
    outer loop
      vertex 82 12.5 10
      vertex 90 12.5 0
      vertex 82 12.5 0
    endloop
  endfacet
  facet normal 1 -0 0
    outer loop
      vertex 120 -20 10
      vertex 120 20 0
      vertex 120 20 10
    endloop
  endfacet
  facet normal 1 0 0
    outer loop
      vertex 120 20 0
      vertex 120 -20 10
      vertex 120 -20 0
    endloop
  endfacet
  facet normal 0 0 1
    outer loop
      vertex 30 20 10
      vertex 0 20 10
      vertex 30 12.5 10
    endloop
  endfacet
  facet normal 0 0 1
    outer loop
      vertex 43 20 10
      vertex 38 20 10
      vertex 43 12.5 10
    endloop
  endfacet
  facet normal 0 0 1
    outer loop
      vertex 56 20 10
      vertex 51 20 10
      vertex 56 12.5 10
    endloop
  endfacet
  facet normal 0 0 1
    outer loop
      vertex 69 20 10
      vertex 64 20 10
      vertex 69 12.5 10
    endloop
  endfacet
  facet normal 0 0 1
    outer loop
      vertex 82 20 10
      vertex 77 20 10
      vertex 82 12.5 10
    endloop
  endfacet
  facet normal 0 0 1
    outer loop
      vertex 90 12.5 10
      vertex 120 20 10
      vertex 90 20 10
    endloop
  endfacet
  facet normal 0 0 1
    outer loop
      vertex 120 20 10
      vertex 90 12.5 10
      vertex 120 -20 10
    endloop
  endfacet
  facet normal -0 0 1
    outer loop
      vertex 82 12.5 10
      vertex 120 -20 10
      vertex 90 12.5 10
    endloop
  endfacet
  facet normal 0 0 1
    outer loop
      vertex 77 12.5 10
      vertex 82 12.5 10
      vertex 77 20 10
    endloop
  endfacet
  facet normal -0 0 1
    outer loop
      vertex 77 12.5 10
      vertex 120 -20 10
      vertex 82 12.5 10
    endloop
  endfacet
  facet normal -0 0 1
    outer loop
      vertex 69 12.5 10
      vertex 120 -20 10
      vertex 77 12.5 10
    endloop
  endfacet
  facet normal 0 0 1
    outer loop
      vertex 64 12.5 10
      vertex 69 12.5 10
      vertex 64 20 10
    endloop
  endfacet
  facet normal -0 0 1
    outer loop
      vertex 64 12.5 10
      vertex 120 -20 10
      vertex 69 12.5 10
    endloop
  endfacet
  facet normal -0 0 1
    outer loop
      vertex 56 12.5 10
      vertex 120 -20 10
      vertex 64 12.5 10
    endloop
  endfacet
  facet normal 0 0 1
    outer loop
      vertex 51 12.5 10
      vertex 56 12.5 10
      vertex 51 20 10
    endloop
  endfacet
  facet normal 0 0 1
    outer loop
      vertex 0 -20 10
      vertex 56 12.5 10
      vertex 51 12.5 10
    endloop
  endfacet
  facet normal 0 0 1
    outer loop
      vertex 0 -20 10
      vertex 51 12.5 10
      vertex 43 12.5 10
    endloop
  endfacet
  facet normal 0 0 1
    outer loop
      vertex 38 12.5 10
      vertex 43 12.5 10
      vertex 38 20 10
    endloop
  endfacet
  facet normal 0 0 1
    outer loop
      vertex 0 -20 10
      vertex 43 12.5 10
      vertex 38 12.5 10
    endloop
  endfacet
  facet normal 0 0 1
    outer loop
      vertex 0 -20 10
      vertex 38 12.5 10
      vertex 30 12.5 10
    endloop
  endfacet
  facet normal 0 0 1
    outer loop
      vertex 0 -20 10
      vertex 30 12.5 10
      vertex 0 20 10
    endloop
  endfacet
  facet normal 0 0 1
    outer loop
      vertex 56 12.5 10
      vertex 0 -20 10
      vertex 120 -20 10
    endloop
  endfacet
  facet normal 0 0 -1
    outer loop
      vertex 120 -20 0
      vertex 90 12.5 0
      vertex 120 20 0
    endloop
  endfacet
  facet normal 0 0 -1
    outer loop
      vertex 120 -20 0
      vertex 82 12.5 0
      vertex 90 12.5 0
    endloop
  endfacet
  facet normal 0 0 -1
    outer loop
      vertex 82 12.5 0
      vertex 77 12.5 0
      vertex 82 20 0
    endloop
  endfacet
  facet normal 0 0 -1
    outer loop
      vertex 120 -20 0
      vertex 77 12.5 0
      vertex 82 12.5 0
    endloop
  endfacet
  facet normal 0 0 -1
    outer loop
      vertex 120 -20 0
      vertex 69 12.5 0
      vertex 77 12.5 0
    endloop
  endfacet
  facet normal 0 0 -1
    outer loop
      vertex 69 12.5 0
      vertex 64 12.5 0
      vertex 69 20 0
    endloop
  endfacet
  facet normal 0 0 -1
    outer loop
      vertex 120 -20 0
      vertex 64 12.5 0
      vertex 69 12.5 0
    endloop
  endfacet
  facet normal 0 0 -1
    outer loop
      vertex 120 -20 0
      vertex 56 12.5 0
      vertex 64 12.5 0
    endloop
  endfacet
  facet normal 0 0 -1
    outer loop
      vertex 56 12.5 0
      vertex 51 12.5 0
      vertex 56 20 0
    endloop
  endfacet
  facet normal 0 0 -1
    outer loop
      vertex 0 -20 0
      vertex 56 12.5 0
      vertex 120 -20 0
    endloop
  endfacet
  facet normal -0 0 -1
    outer loop
      vertex 56 12.5 0
      vertex 0 -20 0
      vertex 51 12.5 0
    endloop
  endfacet
  facet normal 0 0 -1
    outer loop
      vertex 43 12.5 0
      vertex 38 12.5 0
      vertex 43 20 0
    endloop
  endfacet
  facet normal -0 0 -1
    outer loop
      vertex 51 12.5 0
      vertex 0 -20 0
      vertex 43 12.5 0
    endloop
  endfacet
  facet normal -0 0 -1
    outer loop
      vertex 43 12.5 0
      vertex 0 -20 0
      vertex 38 12.5 0
    endloop
  endfacet
  facet normal -0 0 -1
    outer loop
      vertex 38 12.5 0
      vertex 0 -20 0
      vertex 30 12.5 0
    endloop
  endfacet
  facet normal 0 0 -1
    outer loop
      vertex 0 20 0
      vertex 30 12.5 0
      vertex 0 -20 0
    endloop
  endfacet
  facet normal 0 0 -1
    outer loop
      vertex 30 12.5 0
      vertex 0 20 0
      vertex 30 20 0
    endloop
  endfacet
  facet normal -0 0 -1
    outer loop
      vertex 120 20 0
      vertex 90 12.5 0
      vertex 90 20 0
    endloop
  endfacet
  facet normal -0 0 -1
    outer loop
      vertex 82 20 0
      vertex 77 12.5 0
      vertex 77 20 0
    endloop
  endfacet
  facet normal -0 0 -1
    outer loop
      vertex 69 20 0
      vertex 64 12.5 0
      vertex 64 20 0
    endloop
  endfacet
  facet normal -0 0 -1
    outer loop
      vertex 56 20 0
      vertex 51 12.5 0
      vertex 51 20 0
    endloop
  endfacet
  facet normal -0 0 -1
    outer loop
      vertex 43 20 0
      vertex 38 12.5 0
      vertex 38 20 0
    endloop
  endfacet
  facet normal -1 0 0
    outer loop
      vertex 0 -20 0
      vertex 0 20 10
      vertex 0 20 0
    endloop
  endfacet
  facet normal -1 -0 0
    outer loop
      vertex 0 20 10
      vertex 0 -20 0
      vertex 0 -20 10
    endloop
  endfacet
  facet normal 0 1 -0
    outer loop
      vertex 30 20 0
      vertex 0 20 10
      vertex 30 20 10
    endloop
  endfacet
  facet normal 0 1 0
    outer loop
      vertex 0 20 10
      vertex 30 20 0
      vertex 0 20 0
    endloop
  endfacet
  facet normal 0 1 -0
    outer loop
      vertex 120 20 0
      vertex 90 20 10
      vertex 120 20 10
    endloop
  endfacet
  facet normal 0 1 0
    outer loop
      vertex 90 20 10
      vertex 120 20 0
      vertex 90 20 0
    endloop
  endfacet
  facet normal 0 1 -0
    outer loop
      vertex 43 20 0
      vertex 38 20 10
      vertex 43 20 10
    endloop
  endfacet
  facet normal 0 1 0
    outer loop
      vertex 38 20 10
      vertex 43 20 0
      vertex 38 20 0
    endloop
  endfacet
  facet normal 0 1 -0
    outer loop
      vertex 56 20 0
      vertex 51 20 10
      vertex 56 20 10
    endloop
  endfacet
  facet normal 0 1 0
    outer loop
      vertex 51 20 10
      vertex 56 20 0
      vertex 51 20 0
    endloop
  endfacet
  facet normal 0 1 -0
    outer loop
      vertex 69 20 0
      vertex 64 20 10
      vertex 69 20 10
    endloop
  endfacet
  facet normal 0 1 0
    outer loop
      vertex 64 20 10
      vertex 69 20 0
      vertex 64 20 0
    endloop
  endfacet
  facet normal 0 1 -0
    outer loop
      vertex 82 20 0
      vertex 77 20 10
      vertex 82 20 10
    endloop
  endfacet
  facet normal 0 1 0
    outer loop
      vertex 77 20 10
      vertex 82 20 0
      vertex 77 20 0
    endloop
  endfacet
  facet normal 0 -1 0
    outer loop
      vertex 0 -20 0
      vertex 120 -20 10
      vertex 0 -20 10
    endloop
  endfacet
  facet normal 0 -1 -0
    outer loop
      vertex 120 -20 10
      vertex 0 -20 0
      vertex 120 -20 0
    endloop
  endfacet
endsolid OpenSCAD_Model
